<svg id="te-5c4af02d-7c545a44-84fb52a0" xmlns="http://www.w3.org/2000/svg" viewBox="0 0 440 460"><path d="M344.897 128.053h2.508l.386-.386V82.72l-.386-.386h-2.507v45.719z" id="ce5ceec4aa045ea5__LINE" fill="none" class="s"></path><path d="M344.897 204.638h2.315l.58-.58v-18.132l-.58-.58h-2.315v19.292z" id="66d5a02b9d42a073__LINE-2" fill="none" class="s"></path><path d="M344.897 161.233h2.315l.58-.578V142.52l-.58-.579h-2.315v19.291z" id="eaf1173ed564231a__LINE-3" fill="none" class="s"></path><path d="M103.666 356.939h-2.315l-.579-.579v-51.506l.579-.58h2.315v52.665z" id="1eb4315e691cf656__LINE-4" fill="none" class="s"></path><path d="M103.76 154.096v5.787c0 2.13-.44 3.858-2.57 3.858h-5.461M95.726 183.032h5.464c2.13 0 2.57 1.727 2.57 3.858v5.787" fill="none" class="s"></path><rect x="103.762" y="33.528" width="241.136" height="347.235" rx="8.932" ry="8.932" fill="none" class="s"></rect><path d="M94.117 260.195a5.305 5.305 0 1 1-10.61 0V86.578a5.305 5.305 0 1 1 10.61 0v73.611a4.726 4.726 0 0 0 2.855 4.34 9.645 9.645 0 0 1 0 17.714 4.726 4.726 0 0 0-2.855 4.34v73.612Z" id="03051f247657e38c__ARC" fill="none" class="s"></path><path d="M90.258 173.387a2.894 2.894 0 1 1 5.788 0 2.894 2.894 0 0 1-5.788 0Z" id="a0c9a1a3bbc0fc86__CIRCLE" fill="none" class="s"></path><path d="M294.548 276.978a9.067 9.067 0 1 1 18.134 0 9.067 9.067 0 0 1-18.134 0Z" id="2cf07bbeb8a8c990__CIRCLE-2" fill="none" class="s"></path><path d="M316.1 255.426a9.067 9.067 0 1 1 18.134 0 9.067 9.067 0 0 1-18.133 0Z" id="9134fdf8e7e19c3a__CIRCLE-3" fill="none" class="s"></path><path d="M123.921 272.349a9.26 9.26 0 1 1 18.52 0 9.26 9.26 0 0 1-18.52 0Z" id="8ebaa1956698ffe7__CIRCLE-4" fill="none" class="s"></path><path d="M295.43 268.794c-4.52 4.52-4.52 11.849 0 16.369s11.85 4.52 16.37 0l21.552-21.553c4.52-4.52 4.52-11.848 0-16.368-4.52-4.52-11.849-4.52-16.369 0l-21.552 21.552Z" id="cf467ca7dbfbeee5__LINE-5" fill="none" class="s"></path><path d="M133.663 9.414h7.716v24.113h-7.716z" fill="none" class="s"></path><path d="M113.407 173.387c0-61.261 49.662-110.923 110.923-110.923s110.922 49.662 110.922 110.923-49.661 110.922-110.922 110.922-110.922-49.662-110.922-110.923Z" id="e3ef5583fe07dd90__CIRCLE-5" fill="none" class="s"></path><path d="M283.929 380.57v-86.616H103.762" id="f461cb37b6482ea6__LINE-6" fill="none" class="s"></path><path d="M306.364 297.427a1.158 1.158 0 0 1 2.315 0v67.903a1.157 1.157 0 0 1-2.315 0v-67.903Z" id="74586c092c885dc6__ARC-2" fill="none" class="s"></path><path d="M323.147 365.33v-67.903a1.158 1.158 0 0 0-2.315 0v67.903a1.158 1.158 0 0 0 2.315 0Z" id="c8f27e1a03736052__ARC-3" fill="none" class="s"></path><path d="M115.27 245.88c-.423.197-.954.197-1.419.237-.98.082-1.429.14-1.429 1.208v2.168h2.849v.53h-5.9v-2.755c0-.922.341-1.86 1.42-1.86.774 0 1.182.424 1.403 1.134.057-.318.204-.612.514-.751.637-.286 2.188-.18 2.563-.522v.612Zm-5.46 1.51v2.103h2.172v-2.061c0-.784-.22-1.462-1.135-1.462-.88 0-1.037.686-1.037 1.42Z" class="f"></path><path d="M294.598 315.043h40.316" fill="none" class="s"></path><path d="M109.88 109.688a.393.393 0 0 1-.354-.562l2.42-5.057c.16-.301.59-.301.75 0l2.42 5.057a.393.393 0 0 1-.355.562h-4.881ZM109.88 103.071a.393.393 0 0 1-.354-.562l2.42-5.057c.16-.3.59-.3.75 0l2.42 5.057a.393.393 0 0 1-.355.562h-4.881ZM114.761 237.085c.29 0 .48.302.355.562l-2.42 5.057c-.16.301-.59.301-.75 0l-2.42-5.057a.393.393 0 0 1 .354-.562h4.882Z" class="f"></path><circle cx="224.33" cy="173.387" r="28.936" fill="none" class="s"></circle><path d="M224.33 140.592v-74.27M224.33 206.181v74.27" fill="none" class="s"></path><path d="M146.028 176.22c-.884 0-1.513-.473-1.573-1.431h.532c.03.644.39.988 1.033.988 1.243 0 1.303-1.527 1.348-2.643-.285.577-.749.884-1.37.884-.959 0-1.588-.727-1.588-1.708 0-1.018.719-1.722 1.692-1.707 1.273.015 1.708 1.078 1.708 2.516 0 1.213-.18 3.1-1.782 3.1Zm.075-5.213c-.727 0-1.199.562-1.199 1.303 0 .727.397 1.288 1.124 1.288.748 0 1.228-.532 1.228-1.31 0-.72-.45-1.28-1.154-1.28ZM150.43 176.174c-1.497 0-1.797-1.37-1.797-2.643 0-1.453.375-2.943 1.828-2.943 1.033 0 1.542.63 1.542 1.385h-.532c-.052-.629-.352-.966-1.01-.966-1.191 0-1.318 1.52-1.34 2.464.261-.592.755-.876 1.377-.876 1.01 0 1.565.779 1.565 1.775 0 .988-.659 1.804-1.632 1.804Zm.016-3.182c-.772 0-1.221.621-1.221 1.393 0 .726.442 1.355 1.176 1.355.778 0 1.153-.63 1.153-1.385 0-.734-.345-1.363-1.108-1.363ZM154.99 176.182h-.47l1.774-5.594h.464l-1.767 5.594ZM159.23 176.1v-.517c.763-.697 2.036-1.962 2.515-2.86.112-.21.172-.458.172-.697 0-.644-.427-1.026-1.033-1.026-.651 0-1.093.434-1.086 1.123h-.509c.015-.98.689-1.535 1.602-1.535.869 0 1.535.464 1.535 1.393 0 .779-.561 1.438-1.026 1.992-.494.591-1.1 1.16-1.647 1.7h2.74v.426h-3.264ZM166.182 174.886v1.213h-.487v-1.213h-2.434v-.524l2.314-3.676h.607v3.788h.83v.412h-.83Zm-.48-3.684-2.014 3.273h2.015v-3.273Z" class="f"></path><path d="M282.01 380.57v-84.108l-.58-.579h-57.197l-.578.579v84.108" id="7edbd716df8eb51c__LINE-7" fill="none" class="s"></path><path d="M221.726 380.57v-84.108l-.58-.579H163.95l-.578.579v84.108" id="6c4614caeebaf8f3__LINE-8" fill="none" class="s"></path><path d="M103.666 295.883h57.197l.579.579v84.108" id="f3b024f06512ab75__LINE-9" fill="none" class="s"></path><path d="M188.642 311.771c0-.314.328-.52.61-.385l7.632 3.651a.623.623 0 0 1 0 1.101l-7.631 3.651a.427.427 0 0 1-.611-.385v-7.633Z" class="f"></path><rect x="249.967" y="311.991" width="7.33" height="7.33" rx=".802" ry=".802" class="f"></rect><circle cx="133.084" cy="315.656" r="4.437" class="f"></circle><circle cx="224.33" cy="150.651" r="2.067" fill="none" class="s"></circle><circle cx="204.64" cy="184.754" r="2.067" fill="none" class="s"></circle><circle cx="244.019" cy="184.754" r="2.067" fill="none" class="s"></circle><path d="M307.547 276.944h-7.585v-.19h7.585v.19zM321.147 255.569h7.585v.189h-7.585z" class="f"></path><path d="M324.845 251.872h.189v7.585h-.189z" class="f"></path><path d="M337.849 93.999h-9.028a.501.501 0 0 1-.501-.501V84.47c0-.277.224-.502.501-.502h9.028c.277 0 .501.225.501.502v9.028a.501.501 0 0 1-.501.501Zm-1.552-8.025h-1.002l-1.931 5.086-1.981-5.086h-1.437v6.019h.707v-5.428h.188l2.131 5.428h.716l2.123-5.42v-.008h.26v5.428h.707v-6.019h-.481ZM306.11 52.754h-5.254v3.002H307.611v-3.003h-1.501z" class="f"></path><path d="M332.937 42.788H285.29a2.7 2.7 0 0 0-2.7 2.7v23.535a2.7 2.7 0 0 0 2.7 2.7h47.648a2.7 2.7 0 0 0 2.7-2.7V45.488a2.7 2.7 0 0 0-2.7-2.7Zm-35.835 9.215v.75h-5.255v9.76h-1.502v-9.76h-5.255v-1.5h12.012v.75Zm12.011 1.501v2.252h-.75v.751h-.751v.75h-6.757v5.256h-1.501v-11.26h8.258v.75h.75v.75h.751v.751Zm9.76 3.003v.75h-7.508v-1.5h7.507v.75Zm12.761-4.504v2.252h-.75v.75h-.751v.751h-.75v.751h-.751v.75h-.751v.751h-.75v.752h-.752v.75h-.75v.751h-.751v.751h-.75v.75h-.752v.752h-2.252v-.751h.751v-.75h.75v-.752h.752v-.75h.75v-.751h.75v-.752h.752v-.75h.75v-.751h.751v-.75h.75v-.751h.752v-.751h.75v-.75h.751v-.752h-9.008v-1.5h10.51v.75Z" class="f"></path><path d="M332.937 42.788H285.29a2.7 2.7 0 0 0-2.7 2.7v23.535a2.7 2.7 0 0 0 2.7 2.7h47.648a2.7 2.7 0 0 0 2.7-2.7V45.488a2.7 2.7 0 0 0-2.7-2.7Z" fill="none" class="s"></path><path d="M122.8 53.286v11.109h-1.077V53.286h-3.832v-.896h8.757v.896H122.8ZM134.202 58.767c-.714.232-1.56.282-2.405.282h-2.41v5.346h-1.08V52.39h3.838c1.31 0 2.272.197 2.919.613.962.615 1.343 1.512 1.343 2.724 0 1.46-.83 2.573-2.205 3.039Zm-2.007-5.481h-2.809v4.866h2.261c.648 0 1.576-.034 2.19-.25.928-.331 1.41-1.327 1.41-2.275 0-1.992-1.394-2.341-3.052-2.341ZM137.567 59.452v-.881h8.335v.881h-8.335ZM148.905 64.395h-1.244l4.76-11.059h-6.352v-.946h7.313v1.063l-4.477 10.942Z" class="f"></path><path d="M222.072 55.077a2.315 2.315 0 1 1 4.63 0 2.315 2.315 0 0 1-4.63 0Z" id="f74036f4c97ccea5__CIRCLE-6" fill="none" class="s"></path><circle cx="185.797" cy="55.005" r="1.543" fill="none" class="s"></circle><path d="M294.814 380.907h34.75v3.208h-34.75v-3.208ZM288.457 422.23l2.413-2.414 2.413 2.413-2.413 2.412-2.413-2.411Zm4.826 0 2.413-2.413 2.413 2.413-2.414 2.413-2.412-2.413Zm4.827 0 2.412-2.413 2.413 2.413-2.413 2.413-2.412-2.413Zm4.825 0 2.413-2.412 2.413 2.413-2.412 2.414-2.414-2.415Zm4.825.002 2.414-2.413 2.413 2.412-2.413 2.413-2.414-2.412Zm4.827 0L315 419.82l2.413 2.412-2.413 2.413-2.413-2.413Zm4.826 0 2.413-2.413 2.413 2.412-2.414 2.413-2.412-2.412Zm4.825.001 2.413-2.413 2.414 2.413-2.413 2.413-2.414-2.413Zm4.827 0 2.413-2.413 2.413 2.413-2.412 2.413-2.414-2.413Zm4.825.001 2.414-2.413 2.413 2.414-2.413 2.413-2.414-2.414Zm-43.432-4.83 2.413-2.413 2.414 2.414-2.413 2.413-2.414-2.414Zm4.825 0 2.413-2.413 2.413 2.414-2.414 2.413-2.412-2.414Zm4.827 0 2.413-2.413 2.413 2.414-2.413 2.413-2.413-2.414Zm4.825.001 2.413-2.413 2.413 2.413-2.412 2.413-2.414-2.413Zm4.827.001 2.413-2.413 2.413 2.413-2.413 2.413-2.413-2.413Zm4.826.001 2.413-2.413 2.414 2.413L315 419.82l-2.412-2.413Zm4.826 0 2.413-2.413 2.413 2.413-2.413 2.413-2.413-2.413Zm4.826 0 2.412-2.413 2.413 2.413-2.413 2.413-2.412-2.413Zm4.825.001 2.413-2.413 2.413 2.413-2.412 2.413-2.414-2.413Zm4.825 0 2.414-2.413 2.413 2.413-2.413 2.413-2.414-2.413Zm-43.43-4.831 2.412-2.413 2.413 2.413-2.413 2.413-2.412-2.413Zm4.824.001 2.413-2.413 2.413 2.413-2.413 2.413-2.413-2.413Zm4.826.002 2.413-2.414 2.413 2.413-2.413 2.412-2.413-2.411Zm4.826 0 2.413-2.414 2.412 2.413-2.413 2.412-2.412-2.411Zm4.826 0 2.413-2.414 2.413 2.413-2.413 2.412-2.413-2.411Zm4.826 0 2.413-2.413 2.414 2.413-2.413 2.413-2.414-2.413Zm4.826 0 2.413-2.413 2.413 2.413-2.413 2.413-2.413-2.413Zm4.826 0 2.413-2.412 2.413 2.413-2.413 2.414-2.413-2.415Zm4.826.002 2.413-2.413 2.412 2.412-2.413 2.413-2.412-2.412Zm4.824 0 2.414-2.413 2.413 2.412-2.413 2.413-2.414-2.412Zm-43.43-4.832 2.412-2.412 2.413 2.413-2.413 2.414-2.412-2.415Zm4.825.002 2.413-2.413 2.413 2.412-2.412 2.413-2.414-2.412Zm4.825.001 2.414-2.413 2.413 2.413-2.413 2.413-2.414-2.413Zm4.826.001 2.413-2.413 2.412 2.414-2.413 2.413-2.412-2.414Zm4.827 0 2.413-2.413 2.413 2.414-2.414 2.413-2.412-2.414Zm4.827.001 2.412-2.413 2.413 2.413-2.413 2.413-2.412-2.413Zm4.825-.001 2.413-2.413 2.413 2.414-2.412 2.413-2.414-2.414Zm4.825.001 2.414-2.413 2.413 2.413-2.413 2.413-2.414-2.413Zm4.827.001 2.413-2.413 2.413 2.413-2.413 2.413-2.413-2.413Zm4.825.001 2.413-2.413 2.413 2.413-2.413 2.413-2.413-2.413Zm-43.432-4.831 2.412-2.413 2.413 2.413-2.413 2.413-2.412-2.413Zm4.825.001 2.413-2.413 2.413 2.413-2.412 2.413-2.414-2.413Zm4.827-.001 2.413-2.413 2.413 2.413-2.413 2.413-2.413-2.413Zm4.825.001 2.413-2.413 2.413 2.413-2.413 2.413-2.413-2.413Zm4.826 0 2.413-2.413 2.413 2.413-2.414 2.413-2.412-2.413Zm4.825.001 2.413-2.413 2.414 2.413L315 405.34l-2.412-2.412Zm4.827.002 2.413-2.414 2.413 2.413-2.412 2.412-2.414-2.411Zm4.825 0 2.414-2.413 2.413 2.413-2.413 2.413-2.414-2.413Zm4.827 0 2.413-2.414 2.413 2.413-2.413 2.412-2.413-2.411Zm4.826 0 2.413-2.413 2.413 2.413-2.414 2.413-2.412-2.413Zm-43.433-4.83 2.413-2.413 2.413 2.413-2.413 2.413-2.413-2.413Zm4.826 0 2.413-2.412 2.412 2.413-2.413 2.414-2.412-2.415Zm4.826 0 2.413-2.412 2.413 2.413-2.413 2.414-2.413-2.415Zm4.825 0 2.413-2.413 2.413 2.413-2.413 2.413-2.413-2.413Zm4.827 0 2.413-2.412 2.413 2.413-2.413 2.414-2.413-2.415Zm4.826.002 2.41-2.412 2.413 2.412-2.413 2.413-2.41-2.413Zm4.826.001 2.413-2.413 2.412 2.413-2.413 2.413-2.412-2.413Zm4.826.001 2.413-2.413 2.413 2.414-2.413 2.413-2.413-2.414Zm4.825.001 2.413-2.413 2.413 2.413-2.413 2.413-2.413-2.413Zm4.827 0 2.413-2.413 2.413 2.413-2.413 2.413-2.413-2.413Zm-43.434-4.831 2.413-2.413 2.413 2.414-2.413 2.413-2.413-2.414Zm4.826 0 2.413-2.413 2.412 2.414-2.413 2.413-2.412-2.414Zm4.826 0 2.413-2.413 2.413 2.414-2.413 2.413-2.413-2.414Zm4.826.001 2.413-2.413 2.414 2.413-2.413 2.413-2.414-2.413Zm4.826.001 2.413-2.413 2.413 2.413-2.413 2.413-2.413-2.413Zm4.826.001 2.413-2.413 2.413 2.413-2.413 2.413-2.413-2.413Zm4.826-.001 2.413-2.413 2.412 2.413-2.413 2.413-2.412-2.413Zm4.824.001 2.414-2.413 2.413 2.413-2.413 2.413-2.414-2.413Zm4.827.001 2.413-2.413 2.413 2.413-2.413 2.413-2.413-2.413Zm4.828.002 2.413-2.414 2.413 2.413-2.412 2.412-2.414-2.411Zm-43.435-4.832 2.414-2.413 2.413 2.413-2.413 2.413-2.414-2.413Zm4.826.002 2.413-2.414 2.412 2.413-2.413 2.412-2.412-2.411Zm4.827-.002 2.413-2.413 2.413 2.413-2.414 2.413-2.412-2.413Zm4.827.002 2.412-2.414 2.413 2.413-2.413 2.412-2.412-2.411Zm4.825 0 2.413-2.413 2.413 2.413-2.412 2.413-2.414-2.413Zm4.825 0 2.414-2.412 2.413 2.413-2.413 2.414-2.414-2.415Zm4.827 0 2.413-2.412 2.413 2.413-2.413 2.414-2.413-2.415Zm4.825.002 2.413-2.413 2.413 2.412-2.413 2.413-2.413-2.412Zm4.826 0 2.413-2.413 2.414 2.412-2.413 2.413-2.414-2.412Zm4.826 0 2.413-2.413 2.413 2.412-2.413 2.413-2.413-2.412Z" fill="none" class="s"></path><path d="M334.867 426.587h-44.403l-1.93-1.93v-38.612l1.93-1.93h44.403l1.93 1.93v38.612l-1.93 1.93Z" fill="none" class="s"></path><path d="M290.691 170.642c-.51 0-.982.148-1.394.389a2.755 2.755 0 0 0-1.395-.389 2.794 2.794 0 0 0 0 5.586c.51 0 .983-.148 1.395-.388.412.24.884.388 1.394.388 1.538 0 2.79-1.253 2.79-2.793s-1.252-2.793-2.79-2.793Zm-2.789 5.394a2.602 2.602 0 0 1 0-5.201c.436 0 .84.118 1.202.309-.724.505-1.202 1.342-1.202 2.291s.478 1.787 1.202 2.292c-.361.19-.766.309-1.202.309Zm1.395-4.787c.72.462 1.202 1.267 1.202 2.186s-.481 1.724-1.202 2.187c-.72-.463-1.203-1.268-1.203-2.187s.482-1.724 1.203-2.186Zm1.394 4.787a2.56 2.56 0 0 1-1.202-.31c.725-.504 1.202-1.342 1.202-2.291s-.477-1.786-1.201-2.291a2.56 2.56 0 0 1 1.201-.31c1.432 0 2.597 1.167 2.597 2.6s-1.165 2.602-2.597 2.602Z" class="f"></path><path d="M279.335 176.226c-.926 0-1.628-.501-1.68-1.51h.5c0 .702.597 1.106 1.217 1.106.657 0 1.247-.419 1.247-1.159s-.582-1.136-1.24-1.136c-.096 0-.193.007-.29.022v-.44c.097.014.201.022.298.022.597 0 1.128-.36 1.128-1.032 0-.695-.553-1.054-1.165-1.054-.665 0-1.053.359-1.135 1.054h-.493c.038-.95.777-1.458 1.628-1.458.858 0 1.657.441 1.657 1.436 0 .643-.425 1.076-.993 1.24.672.128 1.128.659 1.128 1.376 0 1.04-.919 1.533-1.807 1.533ZM306.777 176.144v-5.002l-2.03 5.002h-.479l-2.038-5.002v5.002h-.456v-5.406h.799l1.95 4.823 1.932-4.823h.8v5.406h-.478Z" class="f"></path><path d="M308.843 177.865h-8.657a.578.578 0 0 1-.577-.577v-7.705c0-.32.259-.578.577-.578h8.657c.318 0 .577.259.577.578v7.705c0 .318-.26.577-.577.577Zm-8.657-8.668a.385.385 0 0 0-.385.386v7.705c0 .212.173.385.385.385h8.657a.386.386 0 0 0 .385-.385v-7.705a.386.386 0 0 0-.385-.386h-8.657Z" class="f"></path><circle cx="185.797" cy="55.005" r="1.543" class="f"></circle></svg>