<svg width="440" height="460" viewBox="0 0 440 460" fill="none" xmlns="http://www.w3.org/2000/svg">
<path d="M347.291 127.46L347.198 127.553H345.398V82.834H347.198L347.291 82.9271V127.46Z" stroke="#4D4D4D"/>
<path d="M347.292 203.851L347.005 204.138H345.397V185.846H347.005L347.292 186.133V203.851Z" stroke="#4D4D4D"/>
<path d="M347.292 160.447L347.005 160.733H345.397V142.441H347.005L347.292 142.727V160.447Z" stroke="#4D4D4D"/>
<path d="M103.166 356.439H101.558L101.272 356.153V305.061L101.558 304.774H103.166V356.439Z" stroke="#4D4D4D"/>
<mask id="path-5-inside-1_6_162" fill="white">
<path d="M103.76 154.096V159.883C103.76 162.013 103.32 163.741 101.19 163.741H95.729M95.726 183.032H101.19C103.32 183.032 103.76 184.759 103.76 186.89V192.677"/>
</mask>
<path d="M102.76 154.096V159.883H104.76V154.096H102.76ZM102.76 159.883C102.76 160.923 102.644 161.671 102.393 162.136C102.28 162.347 102.149 162.481 101.993 162.57C101.834 162.661 101.586 162.741 101.19 162.741V164.741C101.859 164.741 102.465 164.605 102.987 164.305C103.513 164.004 103.891 163.573 104.154 163.085C104.656 162.154 104.76 160.973 104.76 159.883H102.76ZM101.19 162.741H95.729V164.741H101.19V162.741ZM95.726 184.032H101.19V182.032H95.726V184.032ZM101.19 184.032C101.586 184.032 101.834 184.112 101.993 184.203C102.149 184.292 102.28 184.426 102.393 184.636C102.644 185.102 102.76 185.85 102.76 186.89H104.76C104.76 185.799 104.656 184.618 104.154 183.687C103.891 183.199 103.513 182.769 102.987 182.467C102.465 182.168 101.859 182.032 101.19 182.032V184.032ZM102.76 186.89V192.677H104.76V186.89H102.76Z" fill="#4D4D4D" mask="url(#path-5-inside-1_6_162)"/>
<path d="M112.694 34.028H335.966C340.623 34.028 344.398 37.8031 344.398 42.46V371.831C344.398 376.488 340.623 380.263 335.966 380.263H112.694C108.037 380.263 104.262 376.488 104.262 371.831V42.46C104.262 37.8031 108.037 34.028 112.694 34.028Z" stroke="#4D4D4D"/>
<path d="M93.617 260.195C93.617 261.469 93.1108 262.692 92.2096 263.593C91.3085 264.494 90.0864 265 88.812 265C87.5376 265 86.3155 264.494 85.4144 263.593C84.5132 262.692 84.007 261.469 84.007 260.195V86.578C84.007 85.3036 84.5132 84.0815 85.4144 83.1804C86.3155 82.2792 87.5376 81.773 88.812 81.773C90.0864 81.773 91.3085 82.2792 92.2096 83.1804C93.1108 84.0815 93.617 85.3036 93.617 86.578V160.189C93.617 161.21 93.9159 162.208 94.477 163.061C95.038 163.914 95.8366 164.584 96.7741 164.988L96.972 164.529L96.7741 164.988C98.4145 165.695 99.8119 166.868 100.794 168.36C101.775 169.852 102.299 171.6 102.299 173.386C102.299 175.172 101.775 176.92 100.794 178.412C99.8119 179.904 98.4145 181.077 96.7741 181.784L96.972 182.243L96.7741 181.784C95.8366 182.188 95.038 182.858 94.477 183.711C93.9159 184.564 93.617 185.562 93.617 186.583V260.195Z" stroke="#4D4D4D"/>
<path d="M90.758 173.387C90.758 172.752 91.0102 172.143 91.4592 171.694C91.9081 171.245 92.5171 170.993 93.152 170.993C93.7869 170.993 94.3958 171.245 94.8448 171.694C95.2938 172.143 95.546 172.752 95.546 173.387C95.546 174.022 95.2938 174.631 94.8448 175.08C94.3958 175.529 93.7869 175.781 93.152 175.781C92.5171 175.781 91.9081 175.529 91.4592 175.08C91.0102 174.631 90.758 174.022 90.758 173.387Z" stroke="#4D4D4D"/>
<path d="M295.048 276.978C295.048 274.706 295.951 272.527 297.557 270.92C299.164 269.314 301.343 268.411 303.615 268.411C305.887 268.411 308.066 269.314 309.673 270.92C311.279 272.527 312.182 274.706 312.182 276.978C312.182 279.25 311.279 281.429 309.673 283.036C308.066 284.642 305.887 285.545 303.615 285.545C301.343 285.545 299.164 284.642 297.557 283.036C295.951 281.429 295.048 279.25 295.048 276.978Z" stroke="#4D4D4D"/>
<path d="M316.601 255.421L316.6 255.355C316.609 254.254 316.831 253.165 317.252 252.148C317.683 251.108 318.314 250.164 319.109 249.368C319.905 248.573 320.849 247.942 321.889 247.511C322.928 247.081 324.042 246.859 325.167 246.859C326.292 246.859 327.406 247.081 328.445 247.511C329.485 247.942 330.429 248.573 331.225 249.368C332.02 250.164 332.651 251.108 333.082 252.148C333.512 253.186 333.734 254.299 333.734 255.423C333.71 257.679 332.797 259.834 331.193 261.42C329.589 263.007 327.424 263.898 325.168 263.898C322.911 263.898 320.746 263.007 319.142 261.42C317.538 259.833 316.625 257.677 316.601 255.421Z" stroke="#4D4D4D"/>
<path d="M124.421 272.349C124.421 271.199 124.648 270.06 125.088 268.997C125.528 267.934 126.173 266.968 126.987 266.155C127.8 265.341 128.766 264.696 129.829 264.256C130.891 263.816 132.031 263.589 133.181 263.589C134.331 263.589 135.47 263.816 136.533 264.256C137.596 264.696 138.562 265.341 139.375 266.155C140.189 266.968 140.834 267.934 141.274 268.997C141.714 270.06 141.941 271.199 141.941 272.349C141.941 274.672 141.018 276.9 139.375 278.543C137.732 280.186 135.504 281.109 133.181 281.109C130.858 281.109 128.63 280.186 126.987 278.543C125.344 276.9 124.421 274.672 124.421 272.349Z" stroke="#4D4D4D"/>
<path d="M332.998 263.256L333.352 263.61L332.998 263.256L311.446 284.809C307.122 289.134 300.108 289.134 295.784 284.809C291.489 280.515 291.459 273.569 295.694 269.238L295.785 269.148L317.337 247.596C321.661 243.271 328.674 243.271 332.998 247.596C337.323 251.92 337.323 258.932 332.998 263.256Z" stroke="#4D4D4D"/>
<path d="M134.163 9.914H140.879V33.027H134.163V9.914Z" stroke="#4D4D4D"/>
<path d="M113.908 173.386V172.912C114.164 112.146 163.504 62.964 224.33 62.964C285.315 62.964 334.752 112.402 334.752 173.387C334.752 234.372 285.315 283.809 224.33 283.809C163.345 283.809 113.908 234.371 113.908 173.386Z" stroke="#4D4D4D"/>
<mask id="path-16-inside-2_6_162" fill="white">
<path d="M283.929 380.57V293.954H103.762"/>
</mask>
<path d="M283.929 293.954H284.929V292.954H283.929V293.954ZM284.929 380.57V293.954H282.929V380.57H284.929ZM283.929 292.954H103.762V294.954H283.929V292.954Z" fill="#4D4D4D" mask="url(#path-16-inside-2_6_162)"/>
<path d="M306.864 365.33V297.435C306.871 297.267 306.942 297.107 307.063 296.989C307.186 296.87 307.35 296.803 307.522 296.803C307.693 296.803 307.857 296.87 307.98 296.989C308.101 297.107 308.172 297.267 308.179 297.435V365.33C308.179 365.504 308.11 365.672 307.986 365.795C307.863 365.918 307.696 365.987 307.522 365.987C307.347 365.987 307.18 365.918 307.057 365.795C306.933 365.672 306.864 365.504 306.864 365.33Z" stroke="#4D4D4D"/>
<path d="M322.448 296.989C322.569 297.107 322.64 297.267 322.647 297.435V365.322C322.64 365.49 322.569 365.65 322.448 365.768C322.325 365.887 322.161 365.954 321.99 365.954C321.818 365.954 321.654 365.887 321.531 365.768C321.41 365.65 321.339 365.49 321.332 365.322V297.435C321.339 297.267 321.41 297.107 321.531 296.989C321.654 296.87 321.818 296.803 321.99 296.803C322.161 296.803 322.325 296.87 322.448 296.989Z" stroke="#4D4D4D"/>
<mask id="path-20-inside-3_6_162" fill="white">
<path d="M115.27 245.88C114.847 246.077 114.316 246.077 113.851 246.117C112.871 246.199 112.422 246.257 112.422 247.325V249.493H115.271V250.023H109.371V247.268C109.371 246.346 109.712 245.408 110.791 245.408C111.565 245.408 111.973 245.832 112.194 246.542C112.251 246.224 112.398 245.93 112.708 245.791C113.345 245.505 114.896 245.611 115.271 245.269V245.881L115.27 245.88ZM109.81 247.39V249.493H111.982V247.432C111.982 246.648 111.762 245.97 110.847 245.97C109.967 245.97 109.81 246.656 109.81 247.39Z"/>
</mask>
<path d="M115.27 245.88C114.847 246.077 114.316 246.077 113.851 246.117C112.871 246.199 112.422 246.257 112.422 247.325V249.493H115.271V250.023H109.371V247.268C109.371 246.346 109.712 245.408 110.791 245.408C111.565 245.408 111.973 245.832 112.194 246.542C112.251 246.224 112.398 245.93 112.708 245.791C113.345 245.505 114.896 245.611 115.271 245.269V245.881L115.27 245.88ZM109.81 247.39V249.493H111.982V247.432C111.982 246.648 111.762 245.97 110.847 245.97C109.967 245.97 109.81 246.656 109.81 247.39Z" fill="#4D4D4D"/>
<path d="M115.27 245.88L115.972 245.168L115.477 244.68L114.848 244.973L115.27 245.88ZM113.851 246.117L113.934 247.114L113.937 247.113L113.851 246.117ZM112.422 249.493H111.422V250.493H112.422V249.493ZM115.271 249.493H116.271V248.493H115.271V249.493ZM115.271 250.023V251.023H116.271V250.023H115.271ZM109.371 250.023H108.371V251.023H109.371V250.023ZM112.194 246.542L111.239 246.839L113.178 246.718L112.194 246.542ZM112.708 245.791L113.117 246.703L113.118 246.703L112.708 245.791ZM115.271 245.269H116.271V243.004L114.597 244.53L115.271 245.269ZM115.271 245.881L114.569 246.593L116.271 248.269V245.881H115.271ZM109.81 249.493H108.81V250.493H109.81V249.493ZM111.982 249.493V250.493H112.982V249.493H111.982ZM114.848 244.973C114.774 245.008 114.655 245.04 114.456 245.065C114.227 245.092 114.067 245.095 113.765 245.121L113.937 247.113C114.1 247.099 114.438 247.082 114.697 247.05C114.985 247.015 115.343 246.949 115.692 246.787L114.848 244.973ZM113.768 245.12C113.532 245.14 113.269 245.163 113.03 245.207C112.791 245.252 112.49 245.333 112.21 245.522C111.55 245.967 111.422 246.693 111.422 247.325H113.422C113.422 247.225 113.427 247.154 113.434 247.105C113.441 247.056 113.448 247.038 113.447 247.041C113.445 247.045 113.435 247.07 113.41 247.102C113.385 247.136 113.355 247.162 113.328 247.18C113.283 247.211 113.278 247.196 113.398 247.173C113.519 247.15 113.68 247.135 113.934 247.114L113.768 245.12ZM111.422 247.325V249.493H113.422V247.325H111.422ZM112.422 250.493H115.271V248.493H112.422V250.493ZM114.271 249.493V250.023H116.271V249.493H114.271ZM115.271 249.023H109.371V251.023H115.271V249.023ZM110.371 250.023V247.268H108.371V250.023H110.371ZM110.371 247.268C110.371 246.903 110.443 246.652 110.523 246.525C110.556 246.472 110.582 246.453 110.601 246.443C110.618 246.433 110.67 246.408 110.791 246.408V244.408C109.902 244.408 109.23 244.824 108.83 245.46C108.47 246.032 108.371 246.711 108.371 247.268H110.371ZM110.791 246.408C110.982 246.408 111.033 246.454 111.048 246.467C111.081 246.496 111.161 246.586 111.239 246.839L113.149 246.245C113.006 245.788 112.771 245.311 112.352 244.951C111.914 244.574 111.374 244.408 110.791 244.408V246.408ZM113.178 246.718C113.184 246.685 113.191 246.662 113.196 246.647C113.202 246.632 113.204 246.629 113.201 246.634C113.198 246.64 113.188 246.653 113.171 246.668C113.154 246.684 113.134 246.696 113.117 246.703L112.299 244.879C111.564 245.208 111.296 245.883 111.21 246.366L113.178 246.718ZM113.118 246.703C113.118 246.703 113.118 246.703 113.118 246.703C113.118 246.703 113.119 246.703 113.119 246.703C113.121 246.702 113.122 246.701 113.125 246.7C113.13 246.699 113.136 246.696 113.145 246.693C113.164 246.687 113.188 246.68 113.22 246.673C113.286 246.657 113.369 246.641 113.471 246.626C113.682 246.595 113.915 246.574 114.188 246.546C114.441 246.52 114.738 246.488 115.003 246.434C115.217 246.39 115.631 246.294 115.945 246.008L114.597 244.53C114.724 244.415 114.803 244.434 114.601 244.475C114.45 244.506 114.249 244.53 113.987 244.556C113.746 244.58 113.448 244.608 113.178 244.648C112.92 244.686 112.59 244.748 112.298 244.879L113.118 246.703ZM114.271 245.269V245.881H116.271V245.269H114.271ZM115.973 245.169L115.972 245.168L114.568 246.592L114.569 246.593L115.973 245.169ZM108.81 247.39V249.493H110.81V247.39H108.81ZM109.81 250.493H111.982V248.493H109.81V250.493ZM112.982 249.493V247.432H110.982V249.493H112.982ZM112.982 247.432C112.982 246.984 112.926 246.384 112.603 245.872C112.224 245.273 111.595 244.97 110.847 244.97V246.97C110.952 246.97 110.976 246.989 110.958 246.98C110.949 246.976 110.938 246.968 110.927 246.958C110.917 246.949 110.913 246.942 110.913 246.942C110.915 246.945 110.935 246.979 110.953 247.07C110.971 247.159 110.982 247.279 110.982 247.432H112.982ZM110.847 244.97C110.497 244.97 110.149 245.039 109.834 245.211C109.513 245.387 109.283 245.638 109.129 245.912C108.844 246.414 108.81 246.994 108.81 247.39H110.81C110.81 247.238 110.818 247.118 110.834 247.026C110.85 246.932 110.868 246.898 110.868 246.898C110.863 246.908 110.838 246.942 110.794 246.966C110.755 246.987 110.757 246.97 110.847 246.97V244.97Z" fill="#4D4D4D" mask="url(#path-20-inside-3_6_162)"/>
<mask id="path-22-inside-4_6_162" fill="white">
<path d="M294.598 315.043H334.914Z"/>
</mask>
<path d="M294.598 316.043H334.914V314.043H294.598V316.043Z" fill="#4D4D4D" mask="url(#path-22-inside-4_6_162)"/>
<path d="M110.051 109.188L112.321 104.444L114.591 109.188H110.051ZM110.051 102.571L112.321 97.8267L114.591 102.571H110.051ZM110.051 237.585H114.591L112.321 242.329L110.051 237.585Z" fill="#4D4D4D" stroke="#4D4D4D"/>
<path d="M252.766 173.387C252.766 189.092 240.035 201.823 224.33 201.823C208.625 201.823 195.894 189.092 195.894 173.387C195.894 157.682 208.625 144.951 224.33 144.951C240.035 144.951 252.766 157.682 252.766 173.387Z" stroke="#4D4D4D"/>
<mask id="path-26-inside-5_6_162" fill="white">
<path d="M224.33 140.592V66.322ZM224.33 206.181V280.451Z"/>
</mask>
<path d="M225.33 140.592V66.322H223.33V140.592H225.33ZM223.33 206.181V280.451H225.33V206.181H223.33Z" fill="#4D4D4D" mask="url(#path-26-inside-5_6_162)"/>
<path d="M162.426 171.981C162.426 172.071 162.419 172.159 162.405 172.245C162.413 172.172 162.417 172.099 162.417 172.026C162.417 172.011 162.417 171.996 162.416 171.981C162.408 171.621 162.298 171.293 162.087 171.033C162.3 171.262 162.426 171.577 162.426 171.981ZM159.798 172.091V171.984C159.804 171.928 159.813 171.876 159.825 171.827C159.808 171.91 159.799 171.998 159.798 172.091ZM161.917 172.026C161.917 171.756 161.842 171.532 161.71 171.363C161.835 171.49 161.926 171.683 161.926 171.981C161.926 171.996 161.926 172.011 161.925 172.026C161.923 172.076 161.918 172.127 161.909 172.177C161.914 172.127 161.917 172.076 161.917 172.026Z" fill="#4D4D4D" stroke="#4D4D4D"/>
<mask id="path-29-inside-6_6_162" fill="white">
<path d="M282.01 380.57V296.462L281.43 295.883H224.233L223.655 296.462V380.57"/>
</mask>
<path d="M282.01 296.462H283.01V296.047L282.717 295.754L282.01 296.462ZM281.43 295.883L282.136 295.175L281.844 294.883H281.43V295.883ZM224.233 295.883V294.883H223.818L223.525 295.177L224.233 295.883ZM223.655 296.462L222.947 295.756L222.655 296.048V296.462H223.655ZM283.01 380.57V296.462H281.01V380.57H283.01ZM282.717 295.754L282.136 295.175L280.724 296.591L281.304 297.17L282.717 295.754ZM281.43 294.883H224.233V296.883H281.43V294.883ZM223.525 295.177L222.947 295.756L224.363 297.168L224.941 296.589L223.525 295.177ZM222.655 296.462V380.57H224.655V296.462H222.655Z" fill="#4D4D4D" mask="url(#path-29-inside-6_6_162)"/>
<mask id="path-31-inside-7_6_162" fill="white">
<path d="M221.726 380.57V296.462L221.146 295.883H163.95L163.372 296.462V380.57"/>
</mask>
<path d="M221.726 296.462H222.726V296.047L222.432 295.754L221.726 296.462ZM221.146 295.883L221.852 295.175L221.56 294.883H221.146V295.883ZM163.95 295.883V294.883H163.535L163.242 295.177L163.95 295.883ZM163.372 296.462L162.664 295.756L162.372 296.048V296.462H163.372ZM222.726 380.57V296.462H220.726V380.57H222.726ZM222.432 295.754L221.852 295.175L220.439 296.591L221.019 297.17L222.432 295.754ZM221.146 294.883H163.95V296.883H221.146V294.883ZM163.242 295.177L162.664 295.756L164.08 297.168L164.658 296.589L163.242 295.177ZM162.372 296.462V380.57H164.372V296.462H162.372Z" fill="#4D4D4D" mask="url(#path-31-inside-7_6_162)"/>
<mask id="path-33-inside-8_6_162" fill="white">
<path d="M103.666 295.883H160.863L161.442 296.462V380.57"/>
</mask>
<path d="M160.863 295.883L161.57 295.176L161.277 294.883H160.863V295.883ZM161.442 296.462H162.442V296.048L162.149 295.755L161.442 296.462ZM103.666 296.883H160.863V294.883H103.666V296.883ZM160.156 296.59L160.735 297.169L162.149 295.755L161.57 295.176L160.156 296.59ZM160.442 296.462V380.57H162.442V296.462H160.442Z" fill="#4D4D4D" mask="url(#path-33-inside-8_6_162)"/>
<path d="M189.142 319.288V311.888L196.655 315.482C196.673 315.492 196.687 315.507 196.698 315.524C196.709 315.543 196.715 315.565 196.715 315.587C196.715 315.61 196.709 315.632 196.698 315.651C196.687 315.668 196.673 315.683 196.655 315.693L189.142 319.288Z" fill="#4D4D4D" stroke="#4D4D4D"/>
<path d="M250.769 312.491H256.495C256.662 312.491 256.797 312.626 256.797 312.793V318.519C256.797 318.686 256.662 318.821 256.495 318.821H250.769C250.602 318.821 250.467 318.686 250.467 318.519V312.793C250.467 312.626 250.602 312.491 250.769 312.491Z" fill="#4D4D4D" stroke="#4D4D4D"/>
<path d="M137.021 315.656C137.021 317.83 135.258 319.593 133.084 319.593C130.91 319.593 129.147 317.83 129.147 315.656C129.147 313.482 130.91 311.719 133.084 311.719C135.258 311.719 137.021 313.482 137.021 315.656Z" fill="#4D4D4D" stroke="#4D4D4D"/>
<path d="M225.897 150.651C225.897 151.516 225.195 152.218 224.33 152.218C223.465 152.218 222.763 151.516 222.763 150.651C222.763 149.786 223.465 149.084 224.33 149.084C225.195 149.084 225.897 149.786 225.897 150.651Z" stroke="#4D4D4D"/>
<path d="M206.207 184.754C206.207 185.619 205.505 186.321 204.64 186.321C203.775 186.321 203.073 185.619 203.073 184.754C203.073 183.889 203.775 183.187 204.64 183.187C205.505 183.187 206.207 183.889 206.207 184.754Z" stroke="#4D4D4D"/>
<path d="M245.586 184.754C245.586 185.619 244.884 186.321 244.019 186.321C243.154 186.321 242.452 185.619 242.452 184.754C242.452 183.889 243.154 183.187 244.019 183.187C244.884 183.187 245.586 183.889 245.586 184.754Z" stroke="#4D4D4D"/>
<mask id="path-41-inside-9_6_162" fill="white">
<path d="M307.547 276.944H299.962V276.754H307.547V276.944ZM321.147 255.569H328.732V255.758H321.147V255.569Z"/>
</mask>
<path d="M307.547 276.944H299.962V276.754H307.547V276.944ZM321.147 255.569H328.732V255.758H321.147V255.569Z" fill="#4D4D4D"/>
<path d="M307.547 276.944V277.944H308.547V276.944H307.547ZM299.962 276.944H298.962V277.944H299.962V276.944ZM299.962 276.754V275.754H298.962V276.754H299.962ZM307.547 276.754H308.547V275.754H307.547V276.754ZM321.147 255.569V254.569H320.147V255.569H321.147ZM328.732 255.569H329.732V254.569H328.732V255.569ZM328.732 255.758V256.758H329.732V255.758H328.732ZM321.147 255.758H320.147V256.758H321.147V255.758ZM307.547 275.944H299.962V277.944H307.547V275.944ZM300.962 276.944V276.754H298.962V276.944H300.962ZM299.962 277.754H307.547V275.754H299.962V277.754ZM306.547 276.754V276.944H308.547V276.754H306.547ZM321.147 256.569H328.732V254.569H321.147V256.569ZM327.732 255.569V255.758H329.732V255.569H327.732ZM328.732 254.758H321.147V256.758H328.732V254.758ZM322.147 255.758V255.569H320.147V255.758H322.147Z" fill="#4D4D4D" mask="url(#path-41-inside-9_6_162)"/>
<mask id="path-43-inside-10_6_162" fill="white">
<path d="M324.845 251.872H325.034V259.457H324.845V251.872Z"/>
</mask>
<path d="M324.845 251.872H325.034V259.457H324.845V251.872Z" fill="#4D4D4D"/>
<path d="M324.845 251.872V250.872H323.845V251.872H324.845ZM325.034 251.872H326.034V250.872H325.034V251.872ZM325.034 259.457V260.457H326.034V259.457H325.034ZM324.845 259.457H323.845V260.457H324.845V259.457ZM324.845 252.872H325.034V250.872H324.845V252.872ZM324.034 251.872V259.457H326.034V251.872H324.034ZM325.034 258.457H324.845V260.457H325.034V258.457ZM325.845 259.457V251.872H323.845V259.457H325.845Z" fill="#4D4D4D" mask="url(#path-43-inside-10_6_162)"/>
<path d="M328.82 84.469C328.82 84.4688 328.82 84.4685 328.821 84.4682C328.821 84.4681 328.821 84.4681 328.821 84.468C328.821 84.468 328.821 84.468 328.821 84.468H337.849C337.849 84.468 337.849 84.468 337.849 84.468C337.849 84.4681 337.849 84.4681 337.849 84.4682C337.85 84.4687 337.85 84.4691 337.85 84.469C337.85 84.4687 337.85 84.4687 337.85 84.47V93.498L337.85 93.4984L337.85 93.4987L337.849 93.4989L337.849 93.499H328.821L328.82 93.4987L328.82 93.498V84.47C328.82 84.4695 328.82 84.4691 328.82 84.469ZM328.82 84.469C328.82 84.469 328.82 84.469 328.82 84.469C328.82 84.4688 328.82 84.4687 328.82 84.469ZM335.295 85.474H334.95L334.828 85.7965L333.358 89.6671L331.849 85.7925L331.725 85.474H331.383H329.946H329.446V85.974V91.993V92.493H329.946H330.653H331.153V91.993V88.728L332.507 92.1757L332.631 92.493H332.972H333.688H334.029L334.154 92.1754L335.571 88.5566V91.993V92.493H336.071H336.778H337.278V91.993V85.974V85.474H336.778H336.297H335.295ZM306.11 53.254H306.61V53.253H307.111V55.256H301.356V53.254H306.11Z" fill="#4D4D4D" stroke="#4D4D4D"/>
<path d="M297.102 53.253H297.602V52.753V52.003V51.253V50.753H297.102H285.09H284.59V51.253V52.753V53.253H285.09H289.845V62.513V63.013H290.345H291.847H292.347V62.513V53.253H297.102ZM309.113 56.256H309.613V55.756V53.504V52.753V52.253H309.113H308.862V52.003V51.503H308.362H308.112V51.253V50.753H307.612H299.354H298.854V51.253V62.513V63.013H299.354H300.855H301.355V62.513V57.757H307.612H308.112V57.257V57.007H308.363H308.863V56.507V56.256H309.113ZM319.373 56.507V56.5063L319.372 55.7563L319.371 55.257H318.872H311.365H310.865V55.757V57.257V57.757H311.365H318.873H319.373V57.257V56.507ZM331.634 54.755H332.134V54.255V52.503H332.135V52.003V51.253V50.753H331.635H321.125H320.625V51.253V52.753V53.253H321.125H328.882V53.505V53.755H328.632H328.132V54.255V54.506H327.88H327.38V55.006V55.257H327.13H326.63V55.757V56.007H326.379H325.879V56.507V56.758H325.629H325.129V57.258V57.508H324.877H324.377V58.008V58.26H324.127H323.627V58.76V59.011H323.377H322.877V59.511V59.761H322.625H322.125V60.261V60.513H321.875H321.375V61.013V61.263H321.124H320.624V61.763V62.514V63.014H321.124H323.376H323.876V62.514V62.262H324.128H324.628V61.762V61.512H324.878H325.378V61.012V60.761H325.629H326.129V60.261V60.01H326.379H326.879V59.51V59.26H327.131H327.631V58.76V58.508H327.881H328.381V58.008V57.757H328.632H329.132V57.257V57.007H329.383H329.883V56.507V56.256H330.133H330.633V55.756V55.505H330.884H331.384V55.005V54.755H331.634ZM285.29 43.288H332.937C333.521 43.288 334.081 43.5199 334.494 43.9324C334.906 44.3449 335.138 44.9045 335.138 45.488V69.023C335.138 69.6065 334.906 70.1661 334.494 70.5786C334.081 70.9912 333.521 71.223 332.938 71.223H285.29C284.707 71.223 284.147 70.9912 283.734 70.5786C283.322 70.1661 283.09 69.6065 283.09 69.023V45.488C283.09 44.9045 283.322 44.3449 283.734 43.9324C284.147 43.5198 284.707 43.288 285.29 43.288Z" fill="#4D4D4D" stroke="#4D4D4D"/>
<path d="M285.29 43.288H332.937C333.521 43.288 334.081 43.5199 334.494 43.9324C334.906 44.3449 335.138 44.9045 335.138 45.488V69.023C335.138 69.6065 334.906 70.1661 334.494 70.5786C334.081 70.9912 333.521 71.223 332.938 71.223H285.29C284.707 71.223 284.147 70.9912 283.734 70.5786C283.322 70.1661 283.09 69.6065 283.09 69.023V45.488C283.09 44.9045 283.322 44.3449 283.734 43.9324C284.147 43.5198 284.707 43.288 285.29 43.288Z" stroke="#4D4D4D"/>
<path d="M122.223 52.89H122.3V53.286V63.895H122.223V53.286V52.89ZM128.887 59.049V63.895H128.807V52.89H128.886V53.286V58.152V58.652H128.887V59.049ZM135.747 55.627C135.747 54.6574 135.447 53.9547 134.898 53.4931C135.249 53.7394 135.488 54.0259 135.645 54.3561C135.82 54.723 135.907 55.1717 135.907 55.727C135.907 56.7144 135.471 57.5048 134.696 57.9872C135.411 57.4132 135.747 56.472 135.747 55.627ZM148.421 63.895L151.433 56.8969L148.569 63.895H148.421Z" fill="#4D4D4D" stroke="#4D4D4D"/>
<path d="M222.572 55.077C222.572 54.5956 222.763 54.134 223.104 53.7936C223.444 53.4532 223.906 53.262 224.387 53.262C224.868 53.262 225.33 53.4532 225.67 53.7936C226.011 54.134 226.202 54.5956 226.202 55.077C226.202 55.5584 226.011 56.02 225.67 56.3604C225.33 56.7008 224.868 56.892 224.387 56.892C223.906 56.892 223.444 56.7008 223.104 56.3604C222.763 56.02 222.572 55.5584 222.572 55.077Z" stroke="#4D4D4D"/>
<path d="M186.84 55.005C186.84 55.581 186.373 56.048 185.797 56.048C185.221 56.048 184.754 55.581 184.754 55.005C184.754 54.429 185.221 53.962 185.797 53.962C186.373 53.962 186.84 54.429 186.84 55.005Z" stroke="#4D4D4D"/>
<mask id="path-51-inside-11_6_162" fill="white">
<path d="M294.814 380.907H329.564V384.115H294.814V380.907ZM288.457 422.23L290.87 419.816L293.283 422.229L290.87 424.641L288.457 422.23ZM293.283 422.23L295.696 419.817L298.109 422.23L295.695 424.643L293.283 422.23ZM298.109 422.23L300.522 419.817L302.935 422.23L300.522 424.643L298.109 422.23ZM302.935 422.23L305.348 419.818L307.761 422.231L305.349 424.645L302.935 422.23ZM307.76 422.232L310.174 419.819L312.587 422.231L310.174 424.644L307.76 422.232ZM312.587 422.232L315 419.82L317.413 422.232L315 424.645L312.587 422.232ZM317.413 422.232L319.826 419.819L322.239 422.231L319.825 424.644L317.413 422.232ZM322.238 422.233L324.651 419.82L327.065 422.233L324.652 424.646L322.238 422.233ZM327.065 422.233L329.478 419.82L331.891 422.233L329.479 424.646L327.065 422.233ZM331.89 422.234L334.304 419.821L336.717 422.235L334.304 424.648L331.89 422.234ZM288.458 417.404L290.871 414.991L293.285 417.405L290.872 419.818L288.458 417.404ZM293.283 417.404L295.696 414.991L298.109 417.405L295.695 419.818L293.283 417.404ZM298.11 417.404L300.523 414.991L302.936 417.405L300.523 419.818L298.11 417.404ZM302.935 417.405L305.348 414.992L307.761 417.405L305.349 419.818L302.935 417.405ZM307.762 417.406L310.175 414.993L312.588 417.406L310.174 419.819L307.762 417.406ZM312.588 417.407L315.001 414.994L317.415 417.407L315 419.82L312.588 417.407ZM317.414 417.407L319.827 414.994L322.24 417.407L319.827 419.82L317.414 417.407ZM322.24 417.407L324.652 414.994L327.065 417.407L324.652 419.82L322.24 417.407ZM327.065 417.407L329.478 414.995L331.891 417.408L329.479 419.821L327.065 417.407ZM331.891 417.408L334.304 414.995L336.717 417.408L334.304 419.821L331.891 417.408ZM288.46 412.577L290.872 410.164L293.285 412.577L290.872 414.99L288.46 412.577ZM293.284 412.578L295.697 410.165L298.11 412.578L295.696 414.991L293.284 412.578ZM298.11 412.58L300.523 410.166L302.936 412.579L300.523 414.991L298.11 412.58ZM302.936 412.579L305.349 410.166L307.761 412.579L305.348 414.991L302.936 412.579ZM307.762 412.58L310.175 410.166L312.588 412.579L310.175 414.991L307.762 412.58ZM312.588 412.579L315.001 410.167L317.415 412.58L315.002 414.993L312.588 412.579ZM317.414 412.58L319.827 410.167L322.24 412.58L319.827 414.994L317.414 412.58ZM322.24 412.58L324.653 410.168L327.066 412.581L324.653 414.995L322.24 412.58ZM327.066 412.582L329.479 410.169L331.891 412.581L329.478 414.994L327.066 412.582ZM331.89 412.582L334.304 410.169L336.717 412.581L334.304 414.994L331.89 412.582ZM288.46 407.75L290.872 405.338L293.285 407.751L290.872 410.165L288.46 407.75ZM293.285 407.752L295.698 405.339L298.111 407.751L295.699 410.164L293.285 407.752ZM298.11 407.753L300.524 405.34L302.937 407.753L300.523 410.166L298.11 407.753ZM302.936 407.754L305.349 405.341L307.761 407.755L305.348 410.168L302.936 407.754ZM307.763 407.754L310.176 405.341L312.589 407.755L310.175 410.168L307.763 407.754ZM312.59 407.755L315.002 405.342L317.415 407.755L315.002 410.168L312.59 407.755ZM317.415 407.754L319.828 405.341L322.241 407.755L319.829 410.168L317.415 407.754ZM322.24 407.755L324.654 405.342L327.067 407.755L324.653 410.168L322.24 407.755ZM327.067 407.756L329.48 405.343L331.893 407.756L329.48 410.169L327.067 407.756ZM331.892 407.757L334.305 405.344L336.718 407.757L334.305 410.17L331.892 407.757ZM288.46 402.926L290.872 400.513L293.285 402.926L290.872 405.338L288.46 402.926ZM293.285 402.927L295.698 400.514L298.111 402.927L295.699 405.34L293.285 402.927ZM298.112 402.926L300.525 400.513L302.938 402.926L300.525 405.339L298.112 402.926ZM302.937 402.927L305.35 400.514L307.763 402.927L305.35 405.34L302.937 402.927ZM307.763 402.927L310.176 400.514L312.589 402.927L310.175 405.34L307.763 402.927ZM312.588 402.928L315.001 400.515L317.415 402.928L315 405.34L312.588 402.928ZM317.415 402.93L319.828 400.516L322.241 402.929L319.829 405.341L317.415 402.93ZM322.24 402.93L324.654 400.517L327.067 402.93L324.654 405.342L322.24 402.93ZM327.067 402.93L329.48 400.516L331.893 402.929L329.48 405.341L327.067 402.93ZM331.893 402.93L334.306 400.517L336.719 402.93L334.305 405.343L331.893 402.93ZM288.46 398.1L290.873 395.687L293.286 398.1L290.872 400.513L288.46 398.1ZM293.286 398.1L295.699 395.688L298.111 398.101L295.698 400.515L293.286 398.1ZM298.112 398.1L300.525 395.688L302.938 398.101L300.525 400.515L298.112 398.1ZM302.937 398.1L305.35 395.687L307.763 398.1L305.35 400.513L302.937 398.1ZM307.764 398.1L310.177 395.688L312.59 398.101L310.177 400.515L307.764 398.1ZM312.59 398.101L315 395.69L317.413 398.102L315 400.515L312.59 398.101ZM317.416 398.103L319.829 395.69L322.241 398.103L319.828 400.516L317.416 398.103ZM322.242 398.104L324.655 395.691L327.068 398.105L324.655 400.518L322.242 398.104ZM327.067 398.105L329.48 395.692L331.893 398.105L329.48 400.518L327.067 398.105ZM331.894 398.105L334.307 395.692L336.72 398.105L334.307 400.518L331.894 398.105ZM288.46 393.274L290.873 390.861L293.286 393.275L290.873 395.687L288.46 393.274ZM293.286 393.274L295.699 390.861L298.111 393.275L295.698 395.688L293.286 393.274ZM298.112 393.274L300.525 390.861L302.938 393.275L300.525 395.688L298.112 393.274ZM302.938 393.275L305.351 390.862L307.765 393.275L305.352 395.688L302.938 393.275ZM307.764 393.276L310.177 390.863L312.59 393.276L310.177 395.689L307.764 393.276ZM312.59 393.277L315.003 390.864L317.416 393.277L315.003 395.69L312.59 393.277ZM317.416 393.276L319.829 390.863L322.241 393.276L319.828 395.689L317.416 393.276ZM322.24 393.277L324.654 390.864L327.067 393.277L324.654 395.69L322.24 393.277ZM327.067 393.278L329.48 390.865L331.893 393.278L329.48 395.692L327.067 393.278ZM331.895 393.28L334.308 390.866L336.721 393.279L334.309 395.691L331.895 393.28ZM288.46 388.448L290.874 386.035L293.287 388.448L290.874 390.861L288.46 388.448ZM293.286 388.45L295.699 386.036L298.111 388.449L295.698 390.861L293.286 388.45ZM298.113 388.448L300.526 386.035L302.939 388.448L300.525 390.861L298.113 388.448ZM302.94 388.45L305.352 386.036L307.765 388.449L305.352 390.861L302.94 388.45ZM307.765 388.45L310.178 386.037L312.591 388.45L310.179 390.863L307.765 388.45ZM312.59 388.45L315.004 386.038L317.417 388.451L315.004 390.865L312.59 388.45ZM317.417 388.451L319.83 386.038L322.243 388.451L319.83 390.865L317.417 388.451ZM322.242 388.452L324.655 386.039L327.068 388.451L324.655 390.864L322.242 388.452ZM327.068 388.452L329.481 386.039L331.895 388.451L329.482 390.864L327.068 388.452ZM331.894 388.452L334.307 386.039L336.72 388.451L334.307 390.864L331.894 388.452Z"/>
</mask>
<path d="M294.814 380.907V379.907H293.814V380.907H294.814ZM329.564 380.907H330.564V379.907H329.564V380.907ZM329.564 384.115V385.115H330.564V384.115H329.564ZM294.814 384.115H293.814V385.115H294.814V384.115ZM288.457 422.23L287.75 421.523L287.043 422.23L287.75 422.937L288.457 422.23ZM290.87 419.816L291.577 419.109L290.87 418.402L290.163 419.109L290.87 419.816ZM293.283 422.229L293.99 422.936L294.697 422.229L293.99 421.522L293.283 422.229ZM290.87 424.641L290.163 425.348L290.87 426.055L291.577 425.348L290.87 424.641ZM293.283 422.23L292.576 421.523L291.869 422.23L292.576 422.937L293.283 422.23ZM295.696 419.817L296.403 419.11L295.696 418.403L294.989 419.11L295.696 419.817ZM295.695 424.643L294.988 425.35L295.695 426.057L296.402 425.35L295.695 424.643ZM300.522 419.817L301.229 419.11L300.522 418.403L299.815 419.11L300.522 419.817ZM300.522 424.643L299.815 425.35L300.522 426.057L301.229 425.35L300.522 424.643ZM305.348 419.818L306.055 419.111L305.348 418.404L304.641 419.111L305.348 419.818ZM307.761 422.231L308.468 422.938L309.175 422.231L308.468 421.524L307.761 422.231ZM305.349 424.645L304.642 425.352L305.349 426.06L306.056 425.352L305.349 424.645ZM307.76 422.232L307.053 421.525L306.345 422.232L307.053 422.939L307.76 422.232ZM312.587 422.231L313.294 422.938L314.001 422.231L313.294 421.524L312.587 422.231ZM310.174 424.644L309.467 425.351L310.174 426.058L310.881 425.351L310.174 424.644ZM312.587 422.232L311.88 421.525L311.173 422.232L311.88 422.939L312.587 422.232ZM315 424.645L314.293 425.352L315 426.059L315.707 425.352L315 424.645ZM319.826 419.819L320.533 419.112L319.826 418.405L319.119 419.112L319.826 419.819ZM322.239 422.231L322.946 422.938L323.654 422.231L322.946 421.524L322.239 422.231ZM319.825 424.644L319.118 425.351L319.825 426.058L320.532 425.351L319.825 424.644ZM322.238 422.233L321.531 421.526L320.824 422.233L321.531 422.94L322.238 422.233ZM324.651 419.82L325.358 419.113L324.651 418.406L323.944 419.113L324.651 419.82ZM324.652 424.646L323.945 425.353L324.652 426.06L325.359 425.353L324.652 424.646ZM329.478 419.82L330.185 419.113L329.478 418.406L328.771 419.113L329.478 419.82ZM331.891 422.233L332.598 422.94L333.305 422.233L332.598 421.526L331.891 422.233ZM329.479 424.646L328.772 425.353L329.479 426.06L330.186 425.353L329.479 424.646ZM331.89 422.234L331.183 421.527L330.476 422.234L331.183 422.941L331.89 422.234ZM336.717 422.235L337.424 422.942L338.131 422.235L337.424 421.528L336.717 422.235ZM334.304 424.648L333.597 425.355L334.304 426.062L335.011 425.355L334.304 424.648ZM288.458 417.404L287.751 416.697L287.044 417.404L287.751 418.111L288.458 417.404ZM290.871 414.991L291.578 414.284L290.871 413.577L290.164 414.284L290.871 414.991ZM293.285 417.405L293.992 418.112L294.699 417.405L293.992 416.698L293.285 417.405ZM290.872 419.818L290.165 420.525L290.872 421.232L291.579 420.525L290.872 419.818ZM293.283 417.404L292.576 416.697L291.869 417.404L292.576 418.111L293.283 417.404ZM298.109 417.405L298.816 418.112L299.523 417.405L298.816 416.698L298.109 417.405ZM295.695 419.818L294.988 420.525L295.695 421.232L296.402 420.525L295.695 419.818ZM298.11 417.404L297.403 416.697L296.696 417.404L297.403 418.111L298.11 417.404ZM302.936 417.405L303.643 418.112L304.35 417.405L303.643 416.698L302.936 417.405ZM300.523 419.818L299.816 420.525L300.523 421.232L301.23 420.525L300.523 419.818ZM302.935 417.405L302.228 416.698L301.521 417.405L302.228 418.112L302.935 417.405ZM305.348 414.992L306.055 414.285L305.348 413.578L304.641 414.285L305.348 414.992ZM307.761 417.405L308.468 418.112L309.175 417.405L308.468 416.698L307.761 417.405ZM305.349 419.818L304.642 420.525L305.349 421.232L306.056 420.525L305.349 419.818ZM307.762 417.406L307.055 416.699L306.348 417.406L307.055 418.113L307.762 417.406ZM310.175 414.993L310.882 414.286L310.175 413.579L309.468 414.286L310.175 414.993ZM312.588 417.406L313.295 418.113L314.002 417.406L313.295 416.699L312.588 417.406ZM312.588 417.407L311.881 416.7L311.174 417.407L311.881 418.114L312.588 417.407ZM315.001 414.994L315.708 414.287L315.001 413.58L314.294 414.287L315.001 414.994ZM317.415 417.407L318.122 418.114L318.83 417.407L318.122 416.7L317.415 417.407ZM317.414 417.407L316.707 416.7L316 417.407L316.707 418.114L317.414 417.407ZM319.827 419.82L319.12 420.527L319.827 421.234L320.534 420.527L319.827 419.82ZM324.652 414.994L325.359 414.287L324.652 413.58L323.945 414.287L324.652 414.994ZM324.652 419.82L323.945 420.527L324.652 421.234L325.359 420.527L324.652 419.82ZM329.478 414.995L330.185 414.288L329.478 413.581L328.771 414.288L329.478 414.995ZM329.479 419.821L328.772 420.528L329.479 421.235L330.186 420.528L329.479 419.821ZM334.304 414.995L335.011 414.288L334.304 413.581L333.597 414.288L334.304 414.995ZM336.717 417.408L337.424 418.115L338.131 417.408L337.424 416.701L336.717 417.408ZM288.46 412.577L287.753 411.87L287.046 412.577L287.753 413.284L288.46 412.577ZM290.872 410.164L291.579 409.457L290.872 408.75L290.165 409.457L290.872 410.164ZM293.285 412.577L293.992 413.284L294.699 412.577L293.992 411.87L293.285 412.577ZM290.872 414.99L290.165 415.697L290.872 416.404L291.579 415.697L290.872 414.99ZM293.284 412.578L292.577 411.871L291.87 412.578L292.577 413.285L293.284 412.578ZM295.697 410.165L296.404 409.458L295.697 408.751L294.99 409.458L295.697 410.165ZM298.11 412.578L298.817 413.285L299.524 412.578L298.817 411.871L298.11 412.578ZM298.11 412.58L297.403 411.873L296.696 412.58L297.403 413.287L298.11 412.58ZM305.349 410.166L306.056 409.459L305.349 408.752L304.642 409.459L305.349 410.166ZM307.761 412.579L308.468 413.286L309.175 412.579L308.468 411.872L307.761 412.579ZM305.348 414.991L304.641 415.698L305.348 416.405L306.055 415.698L305.348 414.991ZM307.762 412.58L307.055 411.873L306.348 412.58L307.055 413.287L307.762 412.58ZM310.175 410.166L310.882 409.459L310.175 408.752L309.468 409.459L310.175 410.166ZM310.175 414.991L309.468 415.698L310.175 416.405L310.882 415.698L310.175 414.991ZM315.001 410.167L315.708 409.46L315.001 408.753L314.294 409.46L315.001 410.167ZM317.415 412.58L318.122 413.287L318.829 412.58L318.122 411.873L317.415 412.58ZM315.002 414.993L314.295 415.7L315.002 416.407L315.709 415.7L315.002 414.993ZM317.414 412.58L316.707 411.873L316 412.58L316.707 413.287L317.414 412.58ZM319.827 410.167L320.534 409.46L319.827 408.753L319.12 409.46L319.827 410.167ZM327.066 412.581L327.773 413.288L328.48 412.581L327.773 411.874L327.066 412.581ZM324.653 414.995L323.946 415.702L324.653 416.41L325.36 415.702L324.653 414.995ZM327.066 412.582L326.359 411.875L325.652 412.582L326.359 413.289L327.066 412.582ZM329.479 410.169L330.186 409.462L329.479 408.755L328.772 409.462L329.479 410.169ZM331.891 412.581L332.598 413.288L333.305 412.581L332.598 411.874L331.891 412.581ZM329.478 414.994L328.771 415.701L329.478 416.408L330.185 415.701L329.478 414.994ZM331.89 412.582L331.183 411.875L330.475 412.582L331.183 413.289L331.89 412.582ZM334.304 410.169L335.011 409.462L334.304 408.755L333.597 409.462L334.304 410.169ZM336.717 412.581L337.424 413.288L338.131 412.581L337.424 411.874L336.717 412.581ZM334.304 414.994L333.597 415.701L334.304 416.408L335.011 415.701L334.304 414.994ZM288.46 407.75L287.753 407.043L287.046 407.75L287.752 408.457L288.46 407.75ZM293.285 407.751L293.992 408.458L294.699 407.751L293.992 407.044L293.285 407.751ZM290.872 410.165L290.164 410.872L290.872 411.58L291.579 410.872L290.872 410.165ZM293.285 407.752L292.578 407.045L291.87 407.752L292.578 408.459L293.285 407.752ZM295.698 405.339L296.405 404.632L295.698 403.925L294.991 404.632L295.698 405.339ZM298.111 407.751L298.818 408.458L299.525 407.751L298.818 407.044L298.111 407.751ZM295.699 410.164L294.992 410.871L295.699 411.578L296.406 410.871L295.699 410.164ZM298.11 407.753L297.403 407.046L296.696 407.753L297.403 408.46L298.11 407.753ZM300.524 405.34L301.231 404.633L300.524 403.926L299.817 404.633L300.524 405.34ZM302.937 407.753L303.644 408.46L304.351 407.753L303.644 407.046L302.937 407.753ZM302.936 407.754L302.229 407.047L301.522 407.754L302.229 408.461L302.936 407.754ZM305.349 405.341L306.056 404.634L305.349 403.926L304.642 404.634L305.349 405.341ZM307.761 407.755L308.468 408.462L309.175 407.755L308.468 407.048L307.761 407.755ZM305.348 410.168L304.641 410.875L305.348 411.583L306.055 410.875L305.348 410.168ZM307.763 407.754L307.056 407.047L306.349 407.754L307.056 408.461L307.763 407.754ZM310.176 405.341L310.883 404.634L310.176 403.927L309.469 404.634L310.176 405.341ZM312.589 407.755L313.296 408.462L314.003 407.755L313.296 407.048L312.589 407.755ZM310.175 410.168L309.468 410.875L310.175 411.582L310.882 410.875L310.175 410.168ZM312.59 407.755L311.883 407.048L311.176 407.755L311.883 408.462L312.59 407.755ZM315.002 405.342L315.709 404.635L315.002 403.928L314.295 404.635L315.002 405.342ZM317.415 407.755L318.122 408.462L318.829 407.755L318.122 407.048L317.415 407.755ZM315.002 410.168L314.295 410.875L315.002 411.582L315.709 410.875L315.002 410.168ZM317.415 407.754L316.708 407.047L316.001 407.754L316.708 408.461L317.415 407.754ZM319.828 405.341L320.535 404.634L319.828 403.927L319.121 404.634L319.828 405.341ZM322.241 407.755L322.948 408.462L323.655 407.755L322.948 407.048L322.241 407.755ZM319.829 410.168L319.122 410.875L319.829 411.582L320.536 410.875L319.829 410.168ZM322.24 407.755L321.533 407.048L320.826 407.755L321.533 408.462L322.24 407.755ZM327.067 407.755L327.774 408.462L328.481 407.755L327.774 407.048L327.067 407.755ZM327.067 407.756L326.36 407.049L325.653 407.756L326.36 408.463L327.067 407.756ZM329.48 405.343L330.187 404.636L329.48 403.929L328.773 404.636L329.48 405.343ZM331.893 407.756L332.6 408.463L333.307 407.756L332.6 407.049L331.893 407.756ZM329.48 410.169L328.773 410.876L329.48 411.583L330.187 410.876L329.48 410.169ZM331.892 407.757L331.185 407.05L330.478 407.757L331.185 408.464L331.892 407.757ZM334.305 405.344L335.012 404.637L334.305 403.93L333.598 404.637L334.305 405.344ZM336.718 407.757L337.425 408.464L338.132 407.757L337.425 407.05L336.718 407.757ZM334.305 410.17L333.598 410.877L334.305 411.584L335.012 410.877L334.305 410.17ZM288.46 402.926L287.753 402.219L287.046 402.926L287.753 403.633L288.46 402.926ZM293.285 402.926L293.992 403.633L294.699 402.926L293.992 402.219L293.285 402.926ZM293.285 402.927L292.578 402.22L291.871 402.927L292.578 403.634L293.285 402.927ZM295.698 400.514L296.405 399.807L295.698 399.1L294.991 399.807L295.698 400.514ZM298.111 402.927L298.818 403.634L299.525 402.927L298.818 402.22L298.111 402.927ZM295.699 405.34L294.992 406.047L295.699 406.754L296.406 406.047L295.699 405.34ZM298.112 402.926L297.405 402.219L296.698 402.926L297.405 403.633L298.112 402.926ZM300.525 400.513L301.232 399.806L300.525 399.099L299.818 399.806L300.525 400.513ZM302.938 402.926L303.645 403.633L304.352 402.926L303.645 402.219L302.938 402.926ZM300.525 405.339L299.818 406.046L300.525 406.753L301.232 406.046L300.525 405.339ZM302.937 402.927L302.23 402.22L301.523 402.927L302.23 403.634L302.937 402.927ZM305.35 400.514L306.057 399.807L305.35 399.1L304.643 399.807L305.35 400.514ZM305.35 405.34L304.643 406.047L305.35 406.754L306.057 406.047L305.35 405.34ZM310.176 400.514L310.883 399.807L310.176 399.1L309.469 399.807L310.176 400.514ZM312.589 402.927L313.296 403.634L314.003 402.927L313.296 402.22L312.589 402.927ZM310.175 405.34L309.468 406.047L310.175 406.754L310.882 406.047L310.175 405.34ZM312.588 402.928L311.881 402.221L311.174 402.928L311.881 403.635L312.588 402.928ZM315.001 400.515L315.708 399.808L315.001 399.101L314.294 399.808L315.001 400.515ZM317.415 402.928L318.122 403.636L318.83 402.928L318.122 402.221L317.415 402.928ZM315 405.34L314.293 406.047L315 406.754L315.707 406.048L315 405.34ZM317.415 402.93L316.708 402.223L316.001 402.931L316.708 403.638L317.415 402.93ZM322.241 402.929L322.948 403.636L323.655 402.929L322.948 402.222L322.241 402.929ZM319.829 405.341L319.122 406.049L319.829 406.755L320.536 406.048L319.829 405.341ZM322.24 402.93L321.533 402.223L320.825 402.93L321.533 403.637L322.24 402.93ZM324.654 400.517L325.361 399.81L324.654 399.103L323.947 399.81L324.654 400.517ZM329.48 400.516L330.187 399.809L329.48 399.102L328.773 399.809L329.48 400.516ZM331.893 402.929L332.6 403.636L333.307 402.929L332.6 402.222L331.893 402.929ZM329.48 405.341L328.773 406.048L329.48 406.755L330.187 406.048L329.48 405.341ZM331.893 402.93L331.186 402.223L330.479 402.93L331.186 403.637L331.893 402.93ZM334.306 400.517L335.013 399.81L334.306 399.103L333.599 399.81L334.306 400.517ZM336.719 402.93L337.426 403.637L338.133 402.93L337.426 402.223L336.719 402.93ZM334.305 405.343L333.598 406.05L334.305 406.757L335.012 406.05L334.305 405.343ZM288.46 398.1L287.753 397.393L287.046 398.1L287.753 398.807L288.46 398.1ZM295.699 395.688L296.406 394.981L295.699 394.274L294.992 394.981L295.699 395.688ZM298.111 398.101L298.818 398.808L299.525 398.101L298.818 397.394L298.111 398.101ZM295.698 400.515L294.99 401.222L295.698 401.93L296.405 401.222L295.698 400.515ZM298.112 398.1L297.405 397.393L296.698 398.1L297.405 398.807L298.112 398.1ZM302.938 398.101L303.645 398.808L304.352 398.101L303.645 397.394L302.938 398.101ZM300.525 400.515L299.818 401.222L300.525 401.93L301.232 401.222L300.525 400.515ZM302.937 398.1L302.23 397.393L301.523 398.1L302.23 398.807L302.937 398.1ZM305.35 395.687L306.057 394.98L305.35 394.273L304.643 394.98L305.35 395.687ZM307.763 398.1L308.47 398.807L309.177 398.1L308.47 397.393L307.763 398.1ZM305.35 400.513L304.643 401.22L305.35 401.927L306.057 401.22L305.35 400.513ZM307.764 398.1L307.057 397.393L306.35 398.1L307.057 398.807L307.764 398.1ZM310.177 395.688L310.884 394.981L310.177 394.274L309.47 394.981L310.177 395.688ZM310.177 400.515L309.47 401.222L310.177 401.93L310.884 401.222L310.177 400.515ZM315 395.69L315.707 394.983L315 394.276L314.293 394.983L315 395.69ZM317.413 398.102L318.12 398.809L318.827 398.102L318.12 397.395L317.413 398.102ZM315 400.515L314.292 401.222L314.999 401.93L315.707 401.222L315 400.515ZM317.416 398.103L316.709 397.396L316.002 398.103L316.709 398.81L317.416 398.103ZM319.829 395.69L320.536 394.983L319.829 394.276L319.122 394.983L319.829 395.69ZM322.241 398.103L322.948 398.81L323.655 398.103L322.948 397.396L322.241 398.103ZM322.242 398.104L321.535 397.397L320.828 398.104L321.535 398.811L322.242 398.104ZM324.655 395.691L325.362 394.984L324.655 394.277L323.948 394.984L324.655 395.691ZM327.068 398.105L327.775 398.812L328.482 398.105L327.775 397.398L327.068 398.105ZM324.655 400.518L323.948 401.225L324.655 401.932L325.362 401.225L324.655 400.518ZM327.067 398.105L326.36 397.398L325.653 398.105L326.36 398.812L327.067 398.105ZM331.893 398.105L332.6 398.812L333.307 398.105L332.6 397.398L331.893 398.105ZM329.48 400.518L328.773 401.225L329.48 401.932L330.187 401.225L329.48 400.518ZM331.894 398.105L331.187 397.398L330.48 398.105L331.187 398.812L331.894 398.105ZM334.307 395.692L335.014 394.985L334.307 394.278L333.6 394.985L334.307 395.692ZM336.72 398.105L337.427 398.812L338.134 398.105L337.427 397.398L336.72 398.105ZM334.307 400.518L333.6 401.225L334.307 401.932L335.014 401.225L334.307 400.518ZM288.46 393.274L287.753 392.567L287.046 393.274L287.753 393.981L288.46 393.274ZM290.873 390.861L291.58 390.154L290.873 389.447L290.166 390.154L290.873 390.861ZM293.286 393.275L293.993 393.982L294.7 393.275L293.993 392.568L293.286 393.275ZM293.286 393.274L292.579 392.567L291.872 393.274L292.579 393.981L293.286 393.274ZM295.699 390.861L296.406 390.154L295.699 389.446L294.992 390.154L295.699 390.861ZM298.111 393.275L298.818 393.982L299.525 393.275L298.818 392.568L298.111 393.275ZM295.698 395.688L294.991 396.395L295.698 397.102L296.405 396.395L295.698 395.688ZM298.112 393.274L297.405 392.567L296.698 393.274L297.405 393.981L298.112 393.274ZM305.351 390.862L306.058 390.155L305.351 389.448L304.644 390.155L305.351 390.862ZM307.765 393.275L308.472 393.982L309.179 393.275L308.472 392.568L307.765 393.275ZM305.352 395.688L304.645 396.395L305.352 397.102L306.059 396.395L305.352 395.688ZM307.764 393.276L307.057 392.569L306.35 393.276L307.057 393.983L307.764 393.276ZM310.177 390.863L310.884 390.156L310.177 389.449L309.47 390.156L310.177 390.863ZM312.59 393.276L313.297 393.983L314.004 393.276L313.297 392.569L312.59 393.276ZM310.177 395.689L309.47 396.396L310.177 397.103L310.884 396.396L310.177 395.689ZM312.59 393.277L311.883 392.57L311.176 393.277L311.883 393.984L312.59 393.277ZM315.003 390.864L315.71 390.157L315.003 389.45L314.296 390.157L315.003 390.864ZM317.416 393.277L318.123 393.984L318.83 393.277L318.123 392.57L317.416 393.277ZM315.003 395.69L314.296 396.397L315.003 397.104L315.71 396.397L315.003 395.69ZM317.416 393.276L316.709 392.569L316.002 393.276L316.709 393.983L317.416 393.276ZM319.829 390.863L320.536 390.156L319.829 389.449L319.122 390.156L319.829 390.863ZM322.241 393.276L322.948 393.983L323.655 393.276L322.948 392.569L322.241 393.276ZM319.828 395.689L319.121 396.396L319.828 397.103L320.535 396.396L319.828 395.689ZM322.24 393.277L321.533 392.57L320.825 393.277L321.533 393.984L322.24 393.277ZM324.654 390.864L325.361 390.157L324.654 389.45L323.947 390.157L324.654 390.864ZM327.067 393.277L327.774 393.984L328.481 393.277L327.774 392.57L327.067 393.277ZM324.654 395.69L323.947 396.397L324.654 397.104L325.361 396.397L324.654 395.69ZM327.067 393.278L326.36 392.571L325.653 393.278L326.36 393.985L327.067 393.278ZM329.48 390.865L330.187 390.158L329.48 389.451L328.773 390.158L329.48 390.865ZM331.893 393.278L332.6 393.985L333.307 393.278L332.6 392.571L331.893 393.278ZM331.895 393.28L331.188 392.573L330.48 393.281L331.188 393.988L331.895 393.28ZM334.308 390.866L335.015 390.159L334.308 389.452L333.601 390.159L334.308 390.866ZM336.721 393.279L337.428 393.986L338.135 393.279L337.428 392.572L336.721 393.279ZM334.309 395.691L333.602 396.399L334.309 397.105L335.016 396.398L334.309 395.691ZM288.46 388.448L287.753 387.741L287.045 388.448L287.753 389.155L288.46 388.448ZM290.874 386.035L291.581 385.328L290.874 384.621L290.167 385.328L290.874 386.035ZM293.287 388.448L293.994 389.155L294.701 388.448L293.994 387.741L293.287 388.448ZM290.874 390.861L290.167 391.568L290.874 392.275L291.581 391.568L290.874 390.861ZM293.286 388.45L292.579 387.743L291.872 388.45L292.579 389.157L293.286 388.45ZM295.699 386.036L296.406 385.329L295.699 384.622L294.992 385.329L295.699 386.036ZM298.111 388.449L298.818 389.156L299.525 388.449L298.818 387.742L298.111 388.449ZM295.698 390.861L294.991 391.568L295.698 392.275L296.405 391.568L295.698 390.861ZM298.113 388.448L297.406 387.741L296.699 388.448L297.406 389.155L298.113 388.448ZM300.526 386.035L301.233 385.328L300.526 384.621L299.819 385.328L300.526 386.035ZM302.939 388.448L303.646 389.155L304.353 388.448L303.646 387.741L302.939 388.448ZM302.94 388.45L302.233 387.743L301.526 388.45L302.233 389.157L302.94 388.45ZM305.352 386.036L306.059 385.329L305.352 384.622L304.645 385.329L305.352 386.036ZM307.765 388.449L308.472 389.156L309.179 388.449L308.472 387.742L307.765 388.449ZM305.352 390.861L304.645 391.568L305.352 392.275L306.059 391.568L305.352 390.861ZM307.765 388.45L307.058 387.743L306.351 388.45L307.058 389.157L307.765 388.45ZM310.178 386.037L310.885 385.33L310.178 384.623L309.471 385.33L310.178 386.037ZM312.591 388.45L313.298 389.157L314.005 388.45L313.298 387.743L312.591 388.45ZM310.179 390.863L309.472 391.57L310.179 392.277L310.886 391.57L310.179 390.863ZM312.59 388.45L311.883 387.743L311.176 388.45L311.883 389.157L312.59 388.45ZM315.004 386.038L315.711 385.331L315.004 384.624L314.297 385.331L315.004 386.038ZM315.004 390.865L314.297 391.572L315.004 392.279L315.711 391.572L315.004 390.865ZM319.83 386.038L320.537 385.331L319.83 384.624L319.123 385.331L319.83 386.038ZM322.243 388.451L322.95 389.158L323.657 388.451L322.95 387.744L322.243 388.451ZM319.83 390.865L319.123 391.572L319.83 392.279L320.537 391.572L319.83 390.865ZM322.242 388.452L321.535 387.745L320.828 388.452L321.535 389.159L322.242 388.452ZM324.655 386.039L325.362 385.332L324.655 384.625L323.948 385.332L324.655 386.039ZM327.068 388.451L327.775 389.158L328.482 388.451L327.775 387.744L327.068 388.451ZM324.655 390.864L323.948 391.571L324.655 392.278L325.362 391.571L324.655 390.864ZM327.068 388.452L326.361 387.745L325.653 388.452L326.361 389.159L327.068 388.452ZM329.481 386.039L330.188 385.332L329.481 384.625L328.774 385.332L329.481 386.039ZM331.895 388.451L332.602 389.158L333.309 388.451L332.602 387.744L331.895 388.451ZM329.482 390.864L328.775 391.571L329.482 392.278L330.189 391.571L329.482 390.864ZM331.894 388.452L331.187 387.745L330.48 388.452L331.187 389.159L331.894 388.452ZM334.307 386.039L335.014 385.332L334.307 384.625L333.6 385.332L334.307 386.039ZM336.72 388.451L337.427 389.158L338.134 388.451L337.427 387.744L336.72 388.451ZM334.307 390.864L333.6 391.571L334.307 392.278L335.014 391.571L334.307 390.864ZM294.814 381.907H329.564V379.907H294.814V381.907ZM328.564 380.907V384.115H330.564V380.907H328.564ZM329.564 383.115H294.814V385.115H329.564V383.115ZM295.814 384.115V380.907H293.814V384.115H295.814ZM289.164 422.937L291.577 420.523L290.163 419.109L287.75 421.523L289.164 422.937ZM290.163 420.523L292.576 422.936L293.99 421.522L291.577 419.109L290.163 420.523ZM292.576 421.522L290.163 423.934L291.577 425.348L293.99 422.936L292.576 421.522ZM291.577 423.934L289.164 421.523L287.75 422.937L290.163 425.348L291.577 423.934ZM293.99 422.937L296.403 420.524L294.989 419.11L292.576 421.523L293.99 422.937ZM294.989 420.524L297.402 422.937L298.816 421.523L296.403 419.11L294.989 420.524ZM297.402 421.523L294.988 423.936L296.402 425.35L298.816 422.937L297.402 421.523ZM296.402 423.936L293.99 421.523L292.576 422.937L294.988 425.35L296.402 423.936ZM298.816 422.937L301.229 420.524L299.815 419.11L297.402 421.523L298.816 422.937ZM299.815 420.524L302.228 422.937L303.642 421.523L301.229 419.11L299.815 420.524ZM302.228 421.523L299.815 423.936L301.229 425.35L303.642 422.937L302.228 421.523ZM301.229 423.936L298.816 421.523L297.402 422.937L299.815 425.35L301.229 423.936ZM303.642 422.937L306.055 420.525L304.641 419.111L302.228 421.523L303.642 422.937ZM304.641 420.525L307.054 422.938L308.468 421.524L306.055 419.111L304.641 420.525ZM307.054 421.524L304.642 423.938L306.056 425.352L308.468 422.938L307.054 421.524ZM306.056 423.938L303.642 421.523L302.228 422.937L304.642 425.352L306.056 423.938ZM308.467 422.939L310.881 420.526L309.467 419.112L307.053 421.525L308.467 422.939ZM309.467 420.526L311.88 422.938L313.294 421.524L310.881 419.112L309.467 420.526ZM311.88 421.524L309.467 423.937L310.881 425.351L313.294 422.938L311.88 421.524ZM310.881 423.937L308.467 421.525L307.053 422.939L309.467 425.351L310.881 423.937ZM313.294 422.939L315.707 420.527L314.293 419.113L311.88 421.525L313.294 422.939ZM314.293 420.527L316.706 422.939L318.12 421.525L315.707 419.113L314.293 420.527ZM316.706 421.525L314.293 423.938L315.707 425.352L318.12 422.939L316.706 421.525ZM315.707 423.938L313.294 421.525L311.88 422.939L314.293 425.352L315.707 423.938ZM318.12 422.939L320.533 420.526L319.119 419.112L316.706 421.525L318.12 422.939ZM319.119 420.526L321.532 422.938L322.946 421.524L320.533 419.112L319.119 420.526ZM321.532 421.524L319.118 423.937L320.532 425.351L322.946 422.938L321.532 421.524ZM320.532 423.937L318.12 421.525L316.706 422.939L319.118 425.351L320.532 423.937ZM322.945 422.94L325.358 420.527L323.944 419.113L321.531 421.526L322.945 422.94ZM323.944 420.527L326.358 422.94L327.772 421.526L325.358 419.113L323.944 420.527ZM326.358 421.526L323.945 423.939L325.359 425.353L327.772 422.94L326.358 421.526ZM325.359 423.939L322.945 421.526L321.531 422.94L323.945 425.353L325.359 423.939ZM327.772 422.94L330.185 420.527L328.771 419.113L326.358 421.526L327.772 422.94ZM328.771 420.527L331.184 422.94L332.598 421.526L330.185 419.113L328.771 420.527ZM331.184 421.526L328.772 423.939L330.186 425.353L332.598 422.94L331.184 421.526ZM330.186 423.939L327.772 421.526L326.358 422.94L328.772 425.353L330.186 423.939ZM332.597 422.941L335.011 420.528L333.597 419.114L331.183 421.527L332.597 422.941ZM333.597 420.528L336.01 422.942L337.424 421.528L335.011 419.114L333.597 420.528ZM336.01 421.528L333.597 423.941L335.011 425.355L337.424 422.942L336.01 421.528ZM335.011 423.941L332.597 421.527L331.183 422.941L333.597 425.355L335.011 423.941ZM289.165 418.111L291.578 415.698L290.164 414.284L287.751 416.697L289.165 418.111ZM290.164 415.698L292.578 418.112L293.992 416.698L291.578 414.284L290.164 415.698ZM292.578 416.698L290.165 419.111L291.579 420.525L293.992 418.112L292.578 416.698ZM291.579 419.111L289.165 416.697L287.751 418.111L290.165 420.525L291.579 419.111ZM293.99 418.111L296.403 415.698L294.989 414.284L292.576 416.697L293.99 418.111ZM294.989 415.698L297.402 418.112L298.816 416.698L296.403 414.284L294.989 415.698ZM297.402 416.698L294.988 419.111L296.402 420.525L298.816 418.112L297.402 416.698ZM296.402 419.111L293.99 416.697L292.576 418.111L294.988 420.525L296.402 419.111ZM298.817 418.111L301.23 415.698L299.816 414.284L297.403 416.697L298.817 418.111ZM299.816 415.698L302.229 418.112L303.643 416.698L301.23 414.284L299.816 415.698ZM302.229 416.698L299.816 419.111L301.23 420.525L303.643 418.112L302.229 416.698ZM301.23 419.111L298.817 416.697L297.403 418.111L299.816 420.525L301.23 419.111ZM303.642 418.112L306.055 415.699L304.641 414.285L302.228 416.698L303.642 418.112ZM304.641 415.699L307.054 418.112L308.468 416.698L306.055 414.285L304.641 415.699ZM307.054 416.698L304.642 419.111L306.056 420.525L308.468 418.112L307.054 416.698ZM306.056 419.111L303.642 416.698L302.228 418.112L304.642 420.525L306.056 419.111ZM308.469 418.113L310.882 415.7L309.468 414.286L307.055 416.699L308.469 418.113ZM309.468 415.7L311.881 418.113L313.295 416.699L310.882 414.286L309.468 415.7ZM311.881 416.699L309.467 419.112L310.881 420.526L313.295 418.113L311.881 416.699ZM310.881 419.112L308.469 416.699L307.055 418.113L309.467 420.526L310.881 419.112ZM313.295 418.114L315.708 415.701L314.294 414.287L311.881 416.7L313.295 418.114ZM314.294 415.701L316.708 418.114L318.122 416.7L315.708 414.287L314.294 415.701ZM316.708 416.7L314.293 419.113L315.707 420.527L318.122 418.114L316.708 416.7ZM315.707 419.113L313.295 416.7L311.881 418.114L314.293 420.527L315.707 419.113ZM318.121 418.114L320.534 415.701L319.12 414.287L316.707 416.7L318.121 418.114ZM319.12 415.701L321.533 418.114L322.947 416.7L320.534 414.287L319.12 415.701ZM321.533 416.7L319.12 419.113L320.534 420.527L322.947 418.114L321.533 416.7ZM320.534 419.113L318.121 416.7L316.707 418.114L319.12 420.527L320.534 419.113ZM322.947 418.114L325.359 415.701L323.945 414.287L321.533 416.7L322.947 418.114ZM323.945 415.701L326.358 418.114L327.772 416.7L325.359 414.287L323.945 415.701ZM326.358 416.7L323.945 419.113L325.359 420.527L327.772 418.114L326.358 416.7ZM325.359 419.113L322.947 416.7L321.533 418.114L323.945 420.527L325.359 419.113ZM327.772 418.114L330.185 415.702L328.771 414.288L326.358 416.7L327.772 418.114ZM328.771 415.702L331.184 418.115L332.598 416.701L330.185 414.288L328.771 415.702ZM331.184 416.701L328.772 419.114L330.186 420.528L332.598 418.115L331.184 416.701ZM330.186 419.114L327.772 416.7L326.358 418.114L328.772 420.528L330.186 419.114ZM332.598 418.115L335.011 415.702L333.597 414.288L331.184 416.701L332.598 418.115ZM333.597 415.702L336.01 418.115L337.424 416.701L335.011 414.288L333.597 415.702ZM336.01 416.701L333.597 419.114L335.011 420.528L337.424 418.115L336.01 416.701ZM335.011 419.114L332.598 416.701L331.184 418.115L333.597 420.528L335.011 419.114ZM289.167 413.284L291.579 410.871L290.165 409.457L287.753 411.87L289.167 413.284ZM290.165 410.871L292.578 413.284L293.992 411.87L291.579 409.457L290.165 410.871ZM292.578 411.87L290.165 414.283L291.579 415.697L293.992 413.284L292.578 411.87ZM291.579 414.283L289.167 411.87L287.753 413.284L290.165 415.697L291.579 414.283ZM293.991 413.285L296.404 410.872L294.99 409.458L292.577 411.871L293.991 413.285ZM294.99 410.872L297.403 413.285L298.817 411.871L296.404 409.458L294.99 410.872ZM297.403 411.871L294.989 414.284L296.403 415.698L298.817 413.285L297.403 411.871ZM296.403 414.284L293.991 411.871L292.577 413.285L294.989 415.698L296.403 414.284ZM298.817 413.287L301.23 410.873L299.816 409.459L297.403 411.873L298.817 413.287ZM299.816 410.873L302.229 413.286L303.643 411.872L301.23 409.459L299.816 410.873ZM302.229 411.872L299.816 414.284L301.23 415.698L303.643 413.286L302.229 411.872ZM301.23 414.284L298.817 411.873L297.403 413.287L299.816 415.698L301.23 414.284ZM303.643 413.286L306.056 410.873L304.642 409.459L302.229 411.872L303.643 413.286ZM304.642 410.873L307.054 413.286L308.468 411.872L306.056 409.459L304.642 410.873ZM307.054 411.872L304.641 414.284L306.055 415.698L308.468 413.286L307.054 411.872ZM306.055 414.284L303.643 411.872L302.229 413.286L304.641 415.698L306.055 414.284ZM308.469 413.287L310.882 410.873L309.468 409.459L307.055 411.873L308.469 413.287ZM309.468 410.873L311.881 413.286L313.295 411.872L310.882 409.459L309.468 410.873ZM311.881 411.872L309.468 414.284L310.882 415.698L313.295 413.286L311.881 411.872ZM310.882 414.284L308.469 411.873L307.055 413.287L309.468 415.698L310.882 414.284ZM313.295 413.286L315.708 410.874L314.294 409.46L311.881 411.872L313.295 413.286ZM314.294 410.874L316.708 413.287L318.122 411.873L315.708 409.46L314.294 410.874ZM316.708 411.873L314.295 414.286L315.709 415.7L318.122 413.287L316.708 411.873ZM315.709 414.286L313.295 411.872L311.881 413.286L314.295 415.7L315.709 414.286ZM318.121 413.287L320.534 410.874L319.12 409.46L316.707 411.873L318.121 413.287ZM319.12 410.874L321.533 413.287L322.947 411.873L320.534 409.46L319.12 410.874ZM321.533 411.873L319.12 414.287L320.534 415.701L322.947 413.287L321.533 411.873ZM320.534 414.287L318.121 411.873L316.707 413.287L319.12 415.701L320.534 414.287ZM322.947 413.287L325.36 410.875L323.946 409.461L321.533 411.873L322.947 413.287ZM323.946 410.875L326.359 413.288L327.773 411.874L325.36 409.461L323.946 410.875ZM326.359 411.874L323.946 414.288L325.36 415.702L327.773 413.288L326.359 411.874ZM325.36 414.288L322.947 411.873L321.533 413.287L323.946 415.702L325.36 414.288ZM327.773 413.289L330.186 410.876L328.772 409.462L326.359 411.875L327.773 413.289ZM328.772 410.876L331.184 413.288L332.598 411.874L330.186 409.462L328.772 410.876ZM331.184 411.874L328.771 414.287L330.185 415.701L332.598 413.288L331.184 411.874ZM330.185 414.287L327.773 411.875L326.359 413.289L328.771 415.701L330.185 414.287ZM332.597 413.289L335.011 410.876L333.597 409.462L331.183 411.875L332.597 413.289ZM333.597 410.876L336.01 413.288L337.424 411.874L335.011 409.462L333.597 410.876ZM336.01 411.874L333.597 414.287L335.011 415.701L337.424 413.288L336.01 411.874ZM335.011 414.287L332.597 411.875L331.183 413.289L333.597 415.701L335.011 414.287ZM289.167 408.457L291.579 406.045L290.165 404.631L287.753 407.043L289.167 408.457ZM290.165 406.045L292.578 408.458L293.992 407.044L291.579 404.631L290.165 406.045ZM292.578 407.044L290.165 409.458L291.579 410.872L293.992 408.458L292.578 407.044ZM291.58 409.458L289.168 407.043L287.752 408.457L290.164 410.872L291.58 409.458ZM293.992 408.459L296.405 406.046L294.991 404.632L292.578 407.045L293.992 408.459ZM294.991 406.046L297.404 408.458L298.818 407.044L296.405 404.632L294.991 406.046ZM297.404 407.044L294.992 409.457L296.406 410.871L298.818 408.458L297.404 407.044ZM296.406 409.457L293.992 407.045L292.578 408.459L294.992 410.871L296.406 409.457ZM298.817 408.46L301.231 406.047L299.817 404.633L297.403 407.046L298.817 408.46ZM299.817 406.047L302.23 408.46L303.644 407.046L301.231 404.633L299.817 406.047ZM302.23 407.046L299.816 409.459L301.23 410.873L303.644 408.46L302.23 407.046ZM301.23 409.459L298.817 407.046L297.403 408.46L299.816 410.873L301.23 409.459ZM303.643 408.461L306.056 406.048L304.642 404.634L302.229 407.047L303.643 408.461ZM304.642 406.048L307.054 408.462L308.468 407.048L306.056 404.634L304.642 406.048ZM307.054 407.048L304.641 409.461L306.055 410.875L308.468 408.462L307.054 407.048ZM306.055 409.461L303.643 407.047L302.229 408.461L304.641 410.875L306.055 409.461ZM308.47 408.461L310.883 406.048L309.469 404.634L307.056 407.047L308.47 408.461ZM309.469 406.048L311.882 408.462L313.296 407.048L310.883 404.634L309.469 406.048ZM311.882 407.048L309.468 409.461L310.882 410.875L313.296 408.462L311.882 407.048ZM310.882 409.461L308.47 407.047L307.056 408.461L309.468 410.875L310.882 409.461ZM313.297 408.462L315.709 406.049L314.295 404.635L311.883 407.048L313.297 408.462ZM314.295 406.049L316.708 408.462L318.122 407.048L315.709 404.635L314.295 406.049ZM316.708 407.048L314.295 409.461L315.709 410.875L318.122 408.462L316.708 407.048ZM315.709 409.461L313.297 407.048L311.883 408.462L314.295 410.875L315.709 409.461ZM318.122 408.461L320.535 406.048L319.121 404.634L316.708 407.047L318.122 408.461ZM319.121 406.048L321.534 408.462L322.948 407.048L320.535 404.634L319.121 406.048ZM321.534 407.048L319.122 409.461L320.536 410.875L322.948 408.462L321.534 407.048ZM320.536 409.461L318.122 407.047L316.708 408.461L319.122 410.875L320.536 409.461ZM322.947 408.462L325.361 406.049L323.947 404.635L321.533 407.048L322.947 408.462ZM323.947 406.049L326.36 408.462L327.774 407.048L325.361 404.635L323.947 406.049ZM326.36 407.048L323.946 409.461L325.36 410.875L327.774 408.462L326.36 407.048ZM325.36 409.461L322.947 407.048L321.533 408.462L323.946 410.875L325.36 409.461ZM327.774 408.463L330.187 406.05L328.773 404.636L326.36 407.049L327.774 408.463ZM328.773 406.05L331.186 408.463L332.6 407.049L330.187 404.636L328.773 406.05ZM331.186 407.049L328.773 409.462L330.187 410.876L332.6 408.463L331.186 407.049ZM330.187 409.462L327.774 407.049L326.36 408.463L328.773 410.876L330.187 409.462ZM332.599 408.464L335.012 406.051L333.598 404.637L331.185 407.05L332.599 408.464ZM333.598 406.051L336.011 408.464L337.425 407.05L335.012 404.637L333.598 406.051ZM336.011 407.05L333.598 409.463L335.012 410.877L337.425 408.464L336.011 407.05ZM335.012 409.463L332.599 407.05L331.185 408.464L333.598 410.877L335.012 409.463ZM289.167 403.633L291.579 401.22L290.165 399.806L287.753 402.219L289.167 403.633ZM290.165 401.22L292.578 403.633L293.992 402.219L291.579 399.806L290.165 401.22ZM292.578 402.219L290.165 404.631L291.579 406.045L293.992 403.633L292.578 402.219ZM291.579 404.631L289.167 402.219L287.753 403.633L290.165 406.045L291.579 404.631ZM293.992 403.634L296.405 401.221L294.991 399.807L292.578 402.22L293.992 403.634ZM294.991 401.221L297.404 403.634L298.818 402.22L296.405 399.807L294.991 401.221ZM297.404 402.22L294.992 404.633L296.406 406.047L298.818 403.634L297.404 402.22ZM296.406 404.633L293.992 402.22L292.578 403.634L294.992 406.047L296.406 404.633ZM298.819 403.633L301.232 401.22L299.818 399.806L297.405 402.219L298.819 403.633ZM299.818 401.22L302.231 403.633L303.645 402.219L301.232 399.806L299.818 401.22ZM302.231 402.219L299.818 404.632L301.232 406.046L303.645 403.633L302.231 402.219ZM301.232 404.632L298.819 402.219L297.405 403.633L299.818 406.046L301.232 404.632ZM303.644 403.634L306.057 401.221L304.643 399.807L302.23 402.22L303.644 403.634ZM304.643 401.221L307.056 403.634L308.47 402.22L306.057 399.807L304.643 401.221ZM307.056 402.22L304.643 404.633L306.057 406.047L308.47 403.634L307.056 402.22ZM306.057 404.633L303.644 402.22L302.23 403.634L304.643 406.047L306.057 404.633ZM308.47 403.634L310.883 401.221L309.469 399.807L307.056 402.22L308.47 403.634ZM309.469 401.221L311.882 403.634L313.296 402.22L310.883 399.807L309.469 401.221ZM311.882 402.22L309.468 404.633L310.882 406.047L313.296 403.634L311.882 402.22ZM310.882 404.633L308.47 402.22L307.056 403.634L309.468 406.047L310.882 404.633ZM313.295 403.635L315.708 401.222L314.294 399.808L311.881 402.221L313.295 403.635ZM314.294 401.222L316.708 403.635L318.122 402.221L315.708 399.808L314.294 401.222ZM316.708 402.22L314.293 404.632L315.707 406.048L318.122 403.636L316.708 402.22ZM315.707 404.633L313.295 402.221L311.881 403.635L314.293 406.047L315.707 404.633ZM318.122 403.637L320.535 401.223L319.121 399.809L316.708 402.223L318.122 403.637ZM319.121 401.223L321.534 403.636L322.948 402.222L320.535 399.809L319.121 401.223ZM321.534 402.222L319.122 404.634L320.536 406.048L322.948 403.636L321.534 402.222ZM320.536 404.633L318.122 402.222L316.708 403.638L319.122 406.049L320.536 404.633ZM322.947 403.637L325.361 401.224L323.947 399.81L321.533 402.223L322.947 403.637ZM323.947 401.224L326.36 403.637L327.774 402.223L325.361 399.81L323.947 401.224ZM326.36 402.223L323.947 404.635L325.361 406.049L327.774 403.637L326.36 402.223ZM325.361 404.635L322.947 402.223L321.533 403.637L323.947 406.049L325.361 404.635ZM327.774 403.637L330.187 401.223L328.773 399.809L326.36 402.223L327.774 403.637ZM328.773 401.223L331.186 403.636L332.6 402.222L330.187 399.809L328.773 401.223ZM331.186 402.222L328.773 404.634L330.187 406.048L332.6 403.636L331.186 402.222ZM330.187 404.634L327.774 402.223L326.36 403.637L328.773 406.048L330.187 404.634ZM332.6 403.637L335.013 401.224L333.599 399.81L331.186 402.223L332.6 403.637ZM333.599 401.224L336.012 403.637L337.426 402.223L335.013 399.81L333.599 401.224ZM336.012 402.223L333.598 404.636L335.012 406.05L337.426 403.637L336.012 402.223ZM335.012 404.636L332.6 402.223L331.186 403.637L333.598 406.05L335.012 404.636ZM289.167 398.807L291.58 396.394L290.166 394.98L287.753 397.393L289.167 398.807ZM290.166 396.394L292.579 398.807L293.993 397.393L291.58 394.98L290.166 396.394ZM292.579 397.393L290.165 399.806L291.579 401.22L293.993 398.807L292.579 397.393ZM291.579 399.806L289.167 397.393L287.753 398.807L290.165 401.22L291.579 399.806ZM293.993 398.807L296.406 396.395L294.992 394.981L292.579 397.393L293.993 398.807ZM294.992 396.395L297.404 398.808L298.818 397.394L296.406 394.981L294.992 396.395ZM297.404 397.394L294.991 399.808L296.405 401.222L298.818 398.808L297.404 397.394ZM296.406 399.808L293.994 397.393L292.578 398.807L294.99 401.222L296.406 399.808ZM298.819 398.807L301.232 396.395L299.818 394.981L297.405 397.393L298.819 398.807ZM299.818 396.395L302.231 398.808L303.645 397.394L301.232 394.981L299.818 396.395ZM302.231 397.394L299.818 399.808L301.232 401.222L303.645 398.808L302.231 397.394ZM301.232 399.808L298.819 397.393L297.405 398.807L299.818 401.222L301.232 399.808ZM303.644 398.807L306.057 396.394L304.643 394.98L302.23 397.393L303.644 398.807ZM304.643 396.394L307.056 398.807L308.47 397.393L306.057 394.98L304.643 396.394ZM307.056 397.393L304.643 399.806L306.057 401.22L308.47 398.807L307.056 397.393ZM306.057 399.806L303.644 397.393L302.23 398.807L304.643 401.22L306.057 399.806ZM308.471 398.807L310.884 396.395L309.47 394.981L307.057 397.393L308.471 398.807ZM309.47 396.395L311.883 398.808L313.297 397.394L310.884 394.981L309.47 396.395ZM311.883 397.394L309.47 399.808L310.884 401.222L313.297 398.808L311.883 397.394ZM310.884 399.808L308.471 397.393L307.057 398.807L309.47 401.222L310.884 399.808ZM313.297 398.808L315.707 396.397L314.293 394.983L311.883 397.394L313.297 398.808ZM314.293 396.397L316.706 398.809L318.12 397.395L315.707 394.983L314.293 396.397ZM316.706 397.395L314.293 399.808L315.707 401.222L318.12 398.809L316.706 397.395ZM315.708 399.808L313.298 397.394L311.882 398.808L314.292 401.222L315.708 399.808ZM318.123 398.81L320.536 396.397L319.122 394.983L316.709 397.396L318.123 398.81ZM319.122 396.397L321.534 398.81L322.948 397.396L320.536 394.983L319.122 396.397ZM321.534 397.396L319.121 399.809L320.535 401.223L322.948 398.81L321.534 397.396ZM320.535 399.809L318.123 397.396L316.709 398.81L319.121 401.223L320.535 399.809ZM322.949 398.811L325.362 396.398L323.948 394.984L321.535 397.397L322.949 398.811ZM323.948 396.398L326.361 398.812L327.775 397.398L325.362 394.984L323.948 396.398ZM326.361 397.398L323.948 399.811L325.362 401.225L327.775 398.812L326.361 397.398ZM325.362 399.811L322.949 397.397L321.535 398.811L323.948 401.225L325.362 399.811ZM327.774 398.812L330.187 396.399L328.773 394.985L326.36 397.398L327.774 398.812ZM328.773 396.399L331.186 398.812L332.6 397.398L330.187 394.985L328.773 396.399ZM331.186 397.398L328.773 399.811L330.187 401.225L332.6 398.812L331.186 397.398ZM330.187 399.811L327.774 397.398L326.36 398.812L328.773 401.225L330.187 399.811ZM332.601 398.812L335.014 396.399L333.6 394.985L331.187 397.398L332.601 398.812ZM333.6 396.399L336.013 398.812L337.427 397.398L335.014 394.985L333.6 396.399ZM336.013 397.398L333.6 399.811L335.014 401.225L337.427 398.812L336.013 397.398ZM335.014 399.811L332.601 397.398L331.187 398.812L333.6 401.225L335.014 399.811ZM289.167 393.981L291.58 391.568L290.166 390.154L287.753 392.567L289.167 393.981ZM290.166 391.568L292.579 393.982L293.993 392.568L291.58 390.154L290.166 391.568ZM292.579 392.568L290.166 394.98L291.58 396.394L293.993 393.982L292.579 392.568ZM291.58 394.98L289.167 392.567L287.753 393.981L290.166 396.394L291.58 394.98ZM293.993 393.981L296.406 391.568L294.992 390.154L292.579 392.567L293.993 393.981ZM294.992 391.568L297.404 393.982L298.818 392.568L296.406 390.154L294.992 391.568ZM297.404 392.568L294.991 394.981L296.405 396.395L298.818 393.982L297.404 392.568ZM296.405 394.981L293.993 392.567L292.579 393.981L294.991 396.395L296.405 394.981ZM298.819 393.981L301.232 391.568L299.818 390.154L297.405 392.567L298.819 393.981ZM299.818 391.568L302.231 393.982L303.645 392.568L301.232 390.154L299.818 391.568ZM302.231 392.568L299.818 394.981L301.232 396.395L303.645 393.982L302.231 392.568ZM301.232 394.981L298.819 392.567L297.405 393.981L299.818 396.395L301.232 394.981ZM303.645 393.982L306.058 391.569L304.644 390.155L302.231 392.568L303.645 393.982ZM304.644 391.569L307.058 393.982L308.472 392.568L306.058 390.155L304.644 391.569ZM307.058 392.568L304.645 394.981L306.059 396.395L308.472 393.982L307.058 392.568ZM306.059 394.981L303.645 392.568L302.231 393.982L304.645 396.395L306.059 394.981ZM308.471 393.983L310.884 391.57L309.47 390.156L307.057 392.569L308.471 393.983ZM309.47 391.57L311.883 393.983L313.297 392.569L310.884 390.156L309.47 391.57ZM311.883 392.569L309.47 394.982L310.884 396.396L313.297 393.983L311.883 392.569ZM310.884 394.982L308.471 392.569L307.057 393.983L309.47 396.396L310.884 394.982ZM313.297 393.984L315.71 391.571L314.296 390.157L311.883 392.57L313.297 393.984ZM314.296 391.571L316.709 393.984L318.123 392.57L315.71 390.157L314.296 391.571ZM316.709 392.57L314.296 394.983L315.71 396.397L318.123 393.984L316.709 392.57ZM315.71 394.983L313.297 392.57L311.883 393.984L314.296 396.397L315.71 394.983ZM318.123 393.983L320.536 391.57L319.122 390.156L316.709 392.569L318.123 393.983ZM319.122 391.57L321.534 393.983L322.948 392.569L320.536 390.156L319.122 391.57ZM321.534 392.569L319.121 394.982L320.535 396.396L322.948 393.983L321.534 392.569ZM320.535 394.982L318.123 392.569L316.709 393.983L319.121 396.396L320.535 394.982ZM322.947 393.984L325.361 391.571L323.947 390.157L321.533 392.57L322.947 393.984ZM323.947 391.571L326.36 393.984L327.774 392.57L325.361 390.157L323.947 391.571ZM326.36 392.57L323.947 394.983L325.361 396.397L327.774 393.984L326.36 392.57ZM325.361 394.983L322.947 392.57L321.533 393.984L323.947 396.397L325.361 394.983ZM327.774 393.985L330.187 391.572L328.773 390.158L326.36 392.571L327.774 393.985ZM328.773 391.572L331.186 393.985L332.6 392.571L330.187 390.158L328.773 391.572ZM331.186 392.571L328.773 394.985L330.187 396.399L332.6 393.985L331.186 392.571ZM330.187 394.985L327.774 392.571L326.36 393.985L328.773 396.399L330.187 394.985ZM332.602 393.987L335.015 391.573L333.601 390.159L331.188 392.573L332.602 393.987ZM333.601 391.573L336.014 393.986L337.428 392.572L335.015 390.159L333.601 391.573ZM336.014 392.572L333.602 394.984L335.016 396.398L337.428 393.986L336.014 392.572ZM335.016 394.983L332.602 392.572L331.188 393.988L333.602 396.399L335.016 394.983ZM289.167 389.155L291.581 386.742L290.167 385.328L287.753 387.741L289.167 389.155ZM290.167 386.742L292.58 389.155L293.994 387.741L291.581 385.328L290.167 386.742ZM292.58 387.741L290.167 390.154L291.581 391.568L293.994 389.155L292.58 387.741ZM291.581 390.154L289.167 387.741L287.753 389.155L290.167 391.568L291.581 390.154ZM293.993 389.157L296.406 386.743L294.992 385.329L292.579 387.743L293.993 389.157ZM294.992 386.743L297.404 389.156L298.818 387.742L296.406 385.329L294.992 386.743ZM297.404 387.742L294.991 390.154L296.405 391.568L298.818 389.156L297.404 387.742ZM296.405 390.154L293.993 387.743L292.579 389.157L294.991 391.568L296.405 390.154ZM298.82 389.155L301.233 386.742L299.819 385.328L297.406 387.741L298.82 389.155ZM299.819 386.742L302.232 389.155L303.646 387.741L301.233 385.328L299.819 386.742ZM302.232 387.741L299.818 390.154L301.232 391.568L303.646 389.155L302.232 387.741ZM301.232 390.154L298.82 387.741L297.406 389.155L299.818 391.568L301.232 390.154ZM303.647 389.157L306.059 386.743L304.645 385.329L302.233 387.743L303.647 389.157ZM304.645 386.743L307.058 389.156L308.472 387.742L306.059 385.329L304.645 386.743ZM307.058 387.742L304.645 390.154L306.059 391.568L308.472 389.156L307.058 387.742ZM306.059 390.154L303.647 387.743L302.233 389.157L304.645 391.568L306.059 390.154ZM308.472 389.157L310.885 386.744L309.471 385.33L307.058 387.743L308.472 389.157ZM309.471 386.744L311.884 389.157L313.298 387.743L310.885 385.33L309.471 386.744ZM311.884 387.743L309.472 390.156L310.886 391.57L313.298 389.157L311.884 387.743ZM310.886 390.156L308.472 387.743L307.058 389.157L309.472 391.57L310.886 390.156ZM313.297 389.157L315.711 386.745L314.297 385.331L311.883 387.743L313.297 389.157ZM314.297 386.745L316.71 389.158L318.124 387.744L315.711 385.331L314.297 386.745ZM316.71 387.744L314.297 390.158L315.711 391.572L318.124 389.158L316.71 387.744ZM315.711 390.158L313.297 387.743L311.883 389.157L314.297 391.572L315.711 390.158ZM318.124 389.158L320.537 386.745L319.123 385.331L316.71 387.744L318.124 389.158ZM319.123 386.745L321.536 389.158L322.95 387.744L320.537 385.331L319.123 386.745ZM321.536 387.744L319.123 390.158L320.537 391.572L322.95 389.158L321.536 387.744ZM320.537 390.158L318.124 387.744L316.71 389.158L319.123 391.572L320.537 390.158ZM322.949 389.159L325.362 386.746L323.948 385.332L321.535 387.745L322.949 389.159ZM323.948 386.746L326.361 389.158L327.775 387.744L325.362 385.332L323.948 386.746ZM326.361 387.744L323.948 390.157L325.362 391.571L327.775 389.158L326.361 387.744ZM325.362 390.157L322.949 387.745L321.535 389.159L323.948 391.571L325.362 390.157ZM327.775 389.159L330.188 386.746L328.774 385.332L326.361 387.745L327.775 389.159ZM328.774 386.746L331.188 389.158L332.602 387.744L330.188 385.332L328.774 386.746ZM331.188 387.744L328.775 390.157L330.189 391.571L332.602 389.158L331.188 387.744ZM330.189 390.157L327.775 387.745L326.361 389.159L328.775 391.571L330.189 390.157ZM332.601 389.159L335.014 386.746L333.6 385.332L331.187 387.745L332.601 389.159ZM333.6 386.746L336.013 389.158L337.427 387.744L335.014 385.332L333.6 386.746ZM336.013 387.744L333.6 390.157L335.014 391.571L337.427 389.158L336.013 387.744ZM335.014 390.157L332.601 387.745L331.187 389.159L333.6 391.571L335.014 390.157Z" fill="#4D4D4D" mask="url(#path-51-inside-11_6_162)"/>
<path d="M336.297 424.45L334.66 426.087H290.671L289.034 424.45V386.252L290.671 384.615H334.66L336.297 386.252V424.45Z" stroke="#4D4D4D"/>
<mask id="path-54-inside-12_6_162" fill="white">
<path d="M290.691 170.642C290.181 170.642 289.709 170.79 289.297 171.031C288.875 170.779 288.393 170.645 287.902 170.642C287.174 170.661 286.483 170.964 285.975 171.486C285.467 172.008 285.183 172.707 285.183 173.435C285.183 174.163 285.467 174.862 285.975 175.384C286.483 175.906 287.174 176.209 287.902 176.228C288.412 176.228 288.885 176.08 289.297 175.84C289.709 176.08 290.181 176.228 290.691 176.228C292.229 176.228 293.481 174.975 293.481 173.435C293.481 171.895 292.229 170.642 290.691 170.642ZM287.902 176.036C287.228 176.013 286.588 175.729 286.119 175.244C285.65 174.759 285.388 174.11 285.388 173.436C285.388 172.761 285.65 172.112 286.119 171.627C286.588 171.142 287.228 170.858 287.902 170.835C288.338 170.835 288.742 170.953 289.104 171.144C288.38 171.649 287.902 172.486 287.902 173.435C287.902 174.384 288.38 175.222 289.104 175.727C288.743 175.917 288.338 176.036 287.902 176.036ZM289.297 171.249C290.017 171.711 290.499 172.516 290.499 173.435C290.499 174.354 290.018 175.159 289.297 175.622C288.577 175.159 288.094 174.354 288.094 173.435C288.094 172.516 288.576 171.711 289.297 171.249ZM290.691 176.036C290.271 176.033 289.858 175.926 289.489 175.726C290.214 175.222 290.691 174.384 290.691 173.435C290.691 172.486 290.214 171.649 289.49 171.144C289.859 170.944 290.271 170.837 290.691 170.834C292.123 170.834 293.288 172.001 293.288 173.434C293.288 174.867 292.123 176.036 290.691 176.036Z"/>
</mask>
<path d="M290.691 170.642C290.181 170.642 289.709 170.79 289.297 171.031C288.875 170.779 288.393 170.645 287.902 170.642C287.174 170.661 286.483 170.964 285.975 171.486C285.467 172.008 285.183 172.707 285.183 173.435C285.183 174.163 285.467 174.862 285.975 175.384C286.483 175.906 287.174 176.209 287.902 176.228C288.412 176.228 288.885 176.08 289.297 175.84C289.709 176.08 290.181 176.228 290.691 176.228C292.229 176.228 293.481 174.975 293.481 173.435C293.481 171.895 292.229 170.642 290.691 170.642ZM287.902 176.036C287.228 176.013 286.588 175.729 286.119 175.244C285.65 174.759 285.388 174.11 285.388 173.436C285.388 172.761 285.65 172.112 286.119 171.627C286.588 171.142 287.228 170.858 287.902 170.835C288.338 170.835 288.742 170.953 289.104 171.144C288.38 171.649 287.902 172.486 287.902 173.435C287.902 174.384 288.38 175.222 289.104 175.727C288.743 175.917 288.338 176.036 287.902 176.036ZM289.297 171.249C290.017 171.711 290.499 172.516 290.499 173.435C290.499 174.354 290.018 175.159 289.297 175.622C288.577 175.159 288.094 174.354 288.094 173.435C288.094 172.516 288.576 171.711 289.297 171.249ZM290.691 176.036C290.271 176.033 289.858 175.926 289.489 175.726C290.214 175.222 290.691 174.384 290.691 173.435C290.691 172.486 290.214 171.649 289.49 171.144C289.859 170.944 290.271 170.837 290.691 170.834C292.123 170.834 293.288 172.001 293.288 173.434C293.288 174.867 292.123 176.036 290.691 176.036Z" fill="#4D4D4D"/>
<path d="M289.297 171.031L288.785 171.89L289.292 172.192L289.802 171.894L289.297 171.031ZM287.902 170.642L287.908 169.642L287.892 169.642L287.875 169.642L287.902 170.642ZM287.902 176.228L287.875 177.228L287.889 177.228H287.902L287.902 176.228ZM289.297 175.84L289.8 174.976L289.297 174.683L288.794 174.976L289.297 175.84ZM287.902 176.036L287.868 177.035L287.885 177.036H287.902V176.036ZM285.388 173.436L284.388 173.436L285.388 173.436ZM287.902 170.835L287.902 169.835H287.885L287.868 169.836L287.902 170.835ZM289.104 171.144L289.676 171.964L291.022 171.025L289.571 170.26L289.104 171.144ZM289.104 175.727L289.57 176.612L291.024 175.847L289.676 174.907L289.104 175.727ZM289.297 171.249L289.837 170.407L289.297 170.061L288.757 170.407L289.297 171.249ZM289.297 175.622L288.756 176.463L289.297 176.811L289.837 176.463L289.297 175.622ZM290.691 176.036L290.683 177.036H290.691V176.036ZM289.489 175.726L288.918 174.905L287.586 175.831L289.012 176.605L289.489 175.726ZM289.49 171.144L289.013 170.265L287.59 171.038L288.918 171.964L289.49 171.144ZM290.691 170.834V169.834L290.683 169.834L290.691 170.834ZM290.691 169.642C289.983 169.642 289.338 169.848 288.792 170.168L289.802 171.894C290.08 171.732 290.379 171.642 290.691 171.642V169.642ZM289.809 170.172C289.234 169.829 288.578 169.646 287.908 169.642L287.896 171.642C288.209 171.644 288.516 171.729 288.785 171.89L289.809 170.172ZM287.875 169.642C286.887 169.669 285.948 170.08 285.258 170.788L286.691 172.184C287.017 171.849 287.461 171.654 287.929 171.642L287.875 169.642ZM285.258 170.788C284.569 171.497 284.183 172.446 284.183 173.435H286.183C286.183 172.968 286.365 172.518 286.691 172.184L285.258 170.788ZM284.183 173.435C284.183 174.424 284.569 175.373 285.258 176.082L286.691 174.686C286.365 174.352 286.183 173.902 286.183 173.435H284.183ZM285.258 176.082C285.948 176.79 286.887 177.201 287.875 177.228L287.929 175.228C287.461 175.216 287.017 175.021 286.691 174.686L285.258 176.082ZM287.902 177.228C288.61 177.228 289.255 177.022 289.8 176.704L288.794 174.976C288.515 175.138 288.214 175.228 287.902 175.228L287.902 177.228ZM288.794 176.704C289.339 177.022 289.983 177.228 290.691 177.228V175.228C290.379 175.228 290.079 175.138 289.8 174.976L288.794 176.704ZM290.691 177.228C292.782 177.228 294.481 175.526 294.481 173.435H292.481C292.481 174.424 291.676 175.228 290.691 175.228V177.228ZM294.481 173.435C294.481 171.344 292.782 169.642 290.691 169.642V171.642C291.676 171.642 292.481 172.446 292.481 173.435H294.481ZM287.936 175.037C287.521 175.022 287.127 174.848 286.838 174.549L285.4 175.939C286.05 176.611 286.934 177.004 287.868 177.035L287.936 175.037ZM286.838 174.549C286.55 174.25 286.388 173.851 286.388 173.436L284.388 173.436C284.388 174.37 284.751 175.267 285.4 175.939L286.838 174.549ZM286.388 173.436C286.388 173.02 286.55 172.621 286.838 172.322L285.4 170.932C284.751 171.604 284.388 172.501 284.388 173.436L286.388 173.436ZM286.838 172.322C287.127 172.023 287.521 171.849 287.936 171.834L287.868 169.836C286.934 169.867 286.05 170.26 285.4 170.932L286.838 172.322ZM287.902 171.835C288.153 171.835 288.398 171.902 288.637 172.028L289.571 170.26C289.086 170.004 288.523 169.835 287.902 169.835L287.902 171.835ZM288.532 170.324C287.555 171.005 286.902 172.141 286.902 173.435H288.902C288.902 172.831 289.205 172.293 289.676 171.964L288.532 170.324ZM286.902 173.435C286.902 174.728 287.554 175.865 288.532 176.547L289.676 174.907C289.206 174.579 288.902 174.04 288.902 173.435H286.902ZM288.638 174.842C288.398 174.968 288.152 175.036 287.902 175.036V177.036C288.524 177.036 289.088 176.866 289.57 176.612L288.638 174.842ZM288.757 172.091C289.207 172.379 289.499 172.876 289.499 173.435H291.499C291.499 172.156 290.827 171.043 289.837 170.407L288.757 172.091ZM289.499 173.435C289.499 173.995 289.207 174.491 288.757 174.781L289.837 176.463C290.829 175.827 291.499 174.713 291.499 173.435H289.499ZM289.838 174.781C289.387 174.491 289.094 173.994 289.094 173.435H287.094C287.094 174.714 287.767 175.827 288.756 176.463L289.838 174.781ZM289.094 173.435C289.094 172.876 289.386 172.38 289.837 172.091L288.757 170.407C287.766 171.042 287.094 172.156 287.094 173.435H289.094ZM290.699 175.036C290.443 175.034 290.191 174.969 289.966 174.847L289.012 176.605C289.525 176.884 290.099 177.032 290.683 177.036L290.699 175.036ZM290.06 176.547C291.04 175.866 291.691 174.728 291.691 173.435H289.691C289.691 174.04 289.388 174.578 288.918 174.905L290.06 176.547ZM291.691 173.435C291.691 172.142 291.04 171.006 290.062 170.324L288.918 171.964C289.388 172.292 289.691 172.83 289.691 173.435H291.691ZM289.967 172.023C290.192 171.901 290.443 171.836 290.699 171.834L290.683 169.834C290.099 169.839 289.526 169.987 289.013 170.265L289.967 172.023ZM290.691 171.834C291.569 171.834 292.288 172.552 292.288 173.434H294.288C294.288 171.45 292.677 169.834 290.691 169.834V171.834ZM292.288 173.434C292.288 174.317 291.568 175.036 290.691 175.036V177.036C292.678 177.036 294.288 175.417 294.288 173.434H292.288Z" fill="#4D4D4D" mask="url(#path-54-inside-12_6_162)"/>
<mask id="path-56-inside-13_6_162" fill="white">
<path d="M279.335 176.226C278.409 176.226 277.707 175.725 277.655 174.716H278.155C278.155 175.418 278.752 175.822 279.372 175.822C280.029 175.822 280.619 175.403 280.619 174.663C280.619 173.923 280.037 173.527 279.379 173.527C279.283 173.527 279.186 173.534 279.089 173.549V173.109C279.186 173.123 279.29 173.131 279.387 173.131C279.984 173.131 280.515 172.771 280.515 172.099C280.515 171.404 279.962 171.045 279.35 171.045C278.685 171.045 278.297 171.404 278.215 172.099H277.722C277.76 171.149 278.499 170.641 279.35 170.641C280.208 170.641 281.007 171.082 281.007 172.077C281.007 172.72 280.582 173.153 280.014 173.317C280.686 173.445 281.142 173.976 281.142 174.693C281.142 175.733 280.223 176.226 279.335 176.226ZM306.777 176.144V171.142L304.747 176.144H304.268L302.23 171.142V176.144H301.774V170.738H302.573L304.523 175.561L306.455 170.738H307.255V176.144H306.777Z"/>
</mask>
<path d="M279.335 176.226C278.409 176.226 277.707 175.725 277.655 174.716H278.155C278.155 175.418 278.752 175.822 279.372 175.822C280.029 175.822 280.619 175.403 280.619 174.663C280.619 173.923 280.037 173.527 279.379 173.527C279.283 173.527 279.186 173.534 279.089 173.549V173.109C279.186 173.123 279.29 173.131 279.387 173.131C279.984 173.131 280.515 172.771 280.515 172.099C280.515 171.404 279.962 171.045 279.35 171.045C278.685 171.045 278.297 171.404 278.215 172.099H277.722C277.76 171.149 278.499 170.641 279.35 170.641C280.208 170.641 281.007 171.082 281.007 172.077C281.007 172.72 280.582 173.153 280.014 173.317C280.686 173.445 281.142 173.976 281.142 174.693C281.142 175.733 280.223 176.226 279.335 176.226ZM306.777 176.144V171.142L304.747 176.144H304.268L302.23 171.142V176.144H301.774V170.738H302.573L304.523 175.561L306.455 170.738H307.255V176.144H306.777Z" fill="#4D4D4D"/>
<path d="M277.655 174.716V173.716H276.602L276.656 174.767L277.655 174.716ZM278.155 174.716H279.155V173.716H278.155V174.716ZM279.089 173.549H278.089V174.716L279.242 174.537L279.089 173.549ZM279.089 173.109L279.232 172.119L278.089 171.954V173.109H279.089ZM278.215 172.099V173.099H279.104L279.208 172.216L278.215 172.099ZM277.722 172.099L276.723 172.059L276.681 173.099H277.722V172.099ZM280.014 173.317L279.737 172.356L279.827 174.299L280.014 173.317ZM306.777 176.144H305.777V177.144H306.777V176.144ZM306.777 171.142H307.777L305.85 170.766L306.777 171.142ZM304.747 176.144V177.144H305.42L305.674 176.52L304.747 176.144ZM304.268 176.144L303.342 176.521L303.596 177.144H304.268V176.144ZM302.23 171.142L303.156 170.765L301.23 171.142H302.23ZM302.23 176.144V177.144H303.23V176.144H302.23ZM301.774 176.144H300.774V177.144H301.774V176.144ZM301.774 170.738V169.738H300.774V170.738H301.774ZM302.573 170.738L303.5 170.363L303.247 169.738H302.573V170.738ZM304.523 175.561L303.596 175.936L304.527 178.239L305.451 175.933L304.523 175.561ZM306.455 170.738V169.738H305.778L305.527 170.366L306.455 170.738ZM307.255 170.738H308.255V169.738H307.255V170.738ZM307.255 176.144V177.144H308.255V176.144H307.255ZM279.335 175.226C279.045 175.226 278.887 175.148 278.812 175.085C278.754 175.036 278.667 174.932 278.654 174.665L276.656 174.767C276.695 175.509 276.985 176.16 277.522 176.613C278.043 177.053 278.699 177.226 279.335 177.226V175.226ZM277.655 175.716H278.155V173.716H277.655V175.716ZM277.155 174.716C277.155 176.134 278.379 176.822 279.372 176.822V174.822C279.269 174.822 279.198 174.787 279.171 174.764C279.165 174.759 279.162 174.755 279.161 174.754C279.16 174.753 279.16 174.752 279.159 174.752C279.159 174.752 279.159 174.752 279.159 174.752C279.159 174.752 279.159 174.751 279.159 174.751C279.159 174.75 279.158 174.749 279.158 174.746C279.157 174.742 279.155 174.733 279.155 174.716H277.155ZM279.372 176.822C279.905 176.822 280.458 176.653 280.893 176.279C281.346 175.89 281.619 175.322 281.619 174.663H279.619C279.619 174.713 279.61 174.735 279.607 174.74C279.604 174.746 279.6 174.753 279.59 174.761C279.566 174.782 279.496 174.822 279.372 174.822V176.822ZM281.619 174.663C281.619 174.006 281.349 173.439 280.889 173.052C280.45 172.683 279.899 172.527 279.379 172.527V174.527C279.517 174.527 279.586 174.569 279.602 174.583C279.608 174.588 279.609 174.59 279.609 174.591C279.609 174.592 279.619 174.611 279.619 174.663H281.619ZM279.379 172.527C279.234 172.527 279.086 172.538 278.936 172.561L279.242 174.537C279.286 174.53 279.332 174.527 279.379 174.527V172.527ZM280.089 173.549V173.109H278.089V173.549H280.089ZM278.946 174.099C279.087 174.119 279.238 174.131 279.387 174.131V172.131C279.342 172.131 279.285 172.127 279.232 172.119L278.946 174.099ZM279.387 174.131C279.877 174.131 280.399 173.984 280.818 173.633C281.256 173.265 281.515 172.724 281.515 172.099H279.515C279.515 172.133 279.509 172.137 279.515 172.125C279.52 172.113 279.528 172.104 279.532 172.101C279.535 172.099 279.526 172.106 279.501 172.115C279.475 172.123 279.437 172.131 279.387 172.131V174.131ZM281.515 172.099C281.515 171.458 281.248 170.909 280.797 170.539C280.37 170.188 279.841 170.045 279.35 170.045V172.045C279.406 172.045 279.451 172.053 279.483 172.064C279.514 172.074 279.527 172.084 279.527 172.084C279.527 172.084 279.526 172.083 279.525 172.082C279.524 172.081 279.523 172.08 279.521 172.078C279.518 172.073 279.515 172.069 279.513 172.065C279.508 172.054 279.515 172.06 279.515 172.099H281.515ZM279.35 170.045C278.836 170.045 278.305 170.187 277.884 170.578C277.468 170.964 277.281 171.478 277.222 171.982L279.208 172.216C279.231 172.025 279.279 172.012 279.244 172.044C279.229 172.058 279.218 172.061 279.225 172.059C279.235 172.056 279.273 172.045 279.35 172.045V170.045ZM278.215 171.099H277.722V173.099H278.215V171.099ZM278.721 172.139C278.729 171.937 278.8 171.841 278.87 171.783C278.957 171.711 279.116 171.641 279.35 171.641V169.641C278.733 169.641 278.097 169.825 277.592 170.244C277.07 170.678 276.753 171.311 276.723 172.059L278.721 172.139ZM279.35 171.641C279.624 171.641 279.806 171.714 279.893 171.78C279.932 171.81 279.954 171.839 279.97 171.871C279.985 171.903 280.007 171.965 280.007 172.077H282.007C282.007 171.277 281.669 170.62 281.107 170.191C280.581 169.789 279.934 169.641 279.35 169.641V171.641ZM280.007 172.077C280.007 172.164 279.983 172.204 279.961 172.23C279.93 172.266 279.863 172.32 279.737 172.356L280.291 174.278C281.191 174.018 282.007 173.259 282.007 172.077H280.007ZM279.827 174.299C279.95 174.323 280.021 174.375 280.061 174.423C280.1 174.47 280.142 174.552 280.142 174.693H282.142C282.142 173.493 281.342 172.552 280.201 172.335L279.827 174.299ZM280.142 174.693C280.142 174.877 280.078 174.97 279.975 175.047C279.841 175.147 279.611 175.226 279.335 175.226V177.226C279.947 177.226 280.621 177.059 281.168 176.652C281.746 176.222 282.142 175.549 282.142 174.693H280.142ZM307.777 176.144V171.142H305.777V176.144H307.777ZM305.85 170.766L303.82 175.768L305.674 176.52L307.704 171.518L305.85 170.766ZM304.747 175.144H304.268V177.144H304.747V175.144ZM305.194 175.767L303.156 170.765L301.304 171.519L303.342 176.521L305.194 175.767ZM301.23 171.142V176.144H303.23V171.142H301.23ZM302.23 175.144H301.774V177.144H302.23V175.144ZM302.774 176.144V170.738H300.774V176.144H302.774ZM301.774 171.738H302.573V169.738H301.774V171.738ZM301.646 171.113L303.596 175.936L305.45 175.186L303.5 170.363L301.646 171.113ZM305.451 175.933L307.383 171.11L305.527 170.366L303.595 175.189L305.451 175.933ZM306.455 171.738H307.255V169.738H306.455V171.738ZM306.255 170.738V176.144H308.255V170.738H306.255ZM307.255 175.144H306.777V177.144H307.255V175.144Z" fill="#4D4D4D" mask="url(#path-56-inside-13_6_162)"/>
<mask id="path-58-inside-14_6_162" fill="white">
<path d="M308.843 177.865H300.186C300.033 177.865 299.886 177.804 299.778 177.696C299.67 177.588 299.609 177.441 299.609 177.288V169.583C299.609 169.263 299.868 169.005 300.186 169.005H308.843C309.161 169.005 309.42 169.264 309.42 169.583V177.288C309.42 177.606 309.16 177.865 308.843 177.865ZM300.186 169.197C300.135 169.197 300.085 169.207 300.038 169.226C299.992 169.246 299.949 169.274 299.913 169.31C299.878 169.346 299.849 169.389 299.83 169.435C299.811 169.482 299.801 169.532 299.801 169.583V177.288C299.801 177.5 299.974 177.673 300.186 177.673H308.843C308.945 177.673 309.043 177.632 309.115 177.56C309.187 177.488 309.228 177.39 309.228 177.288V169.583C309.228 169.481 309.187 169.383 309.115 169.31C309.043 169.238 308.945 169.197 308.843 169.197H300.186Z"/>
</mask>
<path d="M308.843 177.865H300.186C300.033 177.865 299.886 177.804 299.778 177.696C299.67 177.588 299.609 177.441 299.609 177.288V169.583C299.609 169.263 299.868 169.005 300.186 169.005H308.843C309.161 169.005 309.42 169.264 309.42 169.583V177.288C309.42 177.606 309.16 177.865 308.843 177.865ZM300.186 169.197C300.135 169.197 300.085 169.207 300.038 169.226C299.992 169.246 299.949 169.274 299.913 169.31C299.878 169.346 299.849 169.389 299.83 169.435C299.811 169.482 299.801 169.532 299.801 169.583V177.288C299.801 177.5 299.974 177.673 300.186 177.673H308.843C308.945 177.673 309.043 177.632 309.115 177.56C309.187 177.488 309.228 177.39 309.228 177.288V169.583C309.228 169.481 309.187 169.383 309.115 169.31C309.043 169.238 308.945 169.197 308.843 169.197H300.186Z" fill="#4D4D4D"/>
<path d="M300.186 177.865L300.184 178.865H300.186V177.865ZM299.609 177.288L298.609 177.288L298.609 177.29L299.609 177.288ZM300.186 169.197L300.186 170.197H300.186V169.197ZM299.801 169.583H300.801L300.801 169.58L299.801 169.583ZM308.843 177.673V178.673L308.846 178.673L308.843 177.673ZM309.228 177.288L310.228 177.291V177.288H309.228ZM309.228 169.583L308.228 169.583V169.583H309.228ZM308.843 169.197L308.846 168.197H308.843V169.197ZM308.843 176.865H300.186V178.865H308.843V176.865ZM300.188 176.865C300.299 176.865 300.406 176.91 300.485 176.989L299.071 178.403C299.366 178.698 299.767 178.864 300.184 178.865L300.188 176.865ZM300.485 176.989C300.564 177.068 300.609 177.175 300.609 177.286L298.609 177.29C298.61 177.707 298.776 178.108 299.071 178.403L300.485 176.989ZM300.609 177.288V169.583H298.609V177.288H300.609ZM300.609 169.583C300.609 169.815 300.42 170.005 300.186 170.005V168.005C299.316 168.005 298.609 168.711 298.609 169.583H300.609ZM300.186 170.005H308.843V168.005H300.186V170.005ZM308.843 170.005C308.608 170.005 308.42 169.815 308.42 169.583H310.42C310.42 168.713 309.714 168.005 308.843 168.005V170.005ZM308.42 169.583V177.288H310.42V169.583H308.42ZM308.42 177.288C308.42 177.053 308.609 176.865 308.843 176.865V178.865C309.711 178.865 310.42 178.159 310.42 177.288H308.42ZM300.186 168.197C300.004 168.197 299.824 168.233 299.655 168.303L300.422 170.15C300.347 170.181 300.267 170.197 300.186 170.197L300.186 168.197ZM299.655 168.303C299.487 168.373 299.334 168.475 299.205 168.604L300.621 170.016C300.565 170.073 300.497 170.119 300.422 170.15L299.655 168.303ZM299.205 168.604C299.077 168.733 298.975 168.886 298.905 169.054L300.755 169.816C300.724 169.891 300.678 169.959 300.621 170.016L299.205 168.604ZM298.905 169.054C298.836 169.223 298.801 169.403 298.801 169.586L300.801 169.58C300.801 169.661 300.785 169.742 300.755 169.816L298.905 169.054ZM298.801 169.583V177.288H300.801V169.583H298.801ZM298.801 177.288C298.801 178.052 299.422 178.673 300.186 178.673V176.673C300.526 176.673 300.801 176.948 300.801 177.288H298.801ZM300.186 178.673H308.843V176.673H300.186V178.673ZM308.846 178.673C309.212 178.672 309.563 178.526 309.822 178.267L308.408 176.853C308.523 176.738 308.678 176.673 308.84 176.673L308.846 178.673ZM309.822 178.267C310.081 178.008 310.227 177.657 310.228 177.291L308.228 177.285C308.228 177.123 308.293 176.968 308.408 176.853L309.822 178.267ZM310.228 177.288V169.583H308.228V177.288H310.228ZM310.228 169.583C310.228 169.216 310.082 168.864 309.823 168.604L308.407 170.017C308.292 169.902 308.228 169.746 308.228 169.583L310.228 169.583ZM309.823 168.604C309.564 168.344 309.212 168.198 308.846 168.197L308.84 170.197C308.678 170.197 308.522 170.132 308.407 170.017L309.823 168.604ZM308.843 168.197H300.186V170.197H308.843V168.197Z" fill="#4D4D4D" mask="url(#path-58-inside-14_6_162)"/>
<path d="M186.84 55.005C186.84 55.581 186.373 56.048 185.797 56.048C185.221 56.048 184.754 55.581 184.754 55.005C184.754 54.429 185.221 53.962 185.797 53.962C186.373 53.962 186.84 54.429 186.84 55.005Z" fill="#4D4D4D" stroke="#4D4D4D"/>
</svg>
